<?xml version="1.0" encoding="UTF-8"?>
<svg width="704px" height="492px" viewBox="0 0 704 492" version="1.1" xmlns="http://www.w3.org/2000/svg" xmlns:xlink="http://www.w3.org/1999/xlink">
    <!-- Generator: Sketch 63.1 (92452) - https://sketch.com -->
    <title>Izquierda Copy</title>
    <desc>Created with Sketch.</desc>
    <defs>
        <path d="M98.481,1.168 C142.04,-3.194 205.049,3.021 226.521,48.149 C247.013,91.214 206.243,135.519 231.439,176.645 C250.801,208.247 295.638,220.335 330.463,222.088 C379.898,224.577 426.335,206.475 474.205,197.484 C555.344,182.243 583.8,264.321 584.687,331.073 C585.313,378.134 571.386,428.885 534.351,460.342 C487.416,500.208 416.966,495.561 361.027,482.043 C208.633,445.218 84.074,336.124 22.185,192.952 C7.022,157.878 -2.389,119.217 0.529,80.821 C2.582,53.806 17.651,30.722 41.202,17.37" id="path-1"></path>
        <linearGradient x1="-36.5690306%" y1="46.0734919%" x2="131.595189%" y2="53.9184478%" id="linearGradient-3">
            <stop stop-color="#5DB1FB" offset="0%"></stop>
            <stop stop-color="#5E5EF6" offset="100%"></stop>
        </linearGradient>
    </defs>
    <g id="Page-1" stroke="none" stroke-width="1" fill="none" fill-rule="evenodd">
        <g id="Izquierda-Copy">
            <g id="Group-3" opacity="0.698242188" transform="translate(119.000000, 0.000000)">
                <mask id="mask-2" fill="white">
                    <use xlink:href="#path-1"></use>
                </mask>
                <g id="Clip-2"></g>
                <path d="M534.351,460.342 C571.386,428.885 585.313,378.134 584.687,331.073 C583.8,264.321 555.344,182.243 474.205,197.484 C426.335,206.475 379.898,224.577 330.463,222.088 C295.638,220.335 250.801,208.247 231.439,176.645 C206.243,135.519 247.013,91.214 226.521,48.149 C205.049,3.021 142.04,-3.194 98.481,1.168 C78.593,3.161 58.591,7.513 41.202,17.37 C17.651,30.722 2.582,53.806 0.529,80.821 C-2.389,119.217 7.022,157.878 22.185,192.952 C84.074,336.124 208.633,445.218 361.027,482.043 C416.966,495.561 487.416,500.208 534.351,460.342" id="Fill-1" fill="url(#linearGradient-3)" mask="url(#mask-2)"></path>
            </g>
            <g id="Bruto-05" transform="translate(0.000000, 145.000000)" fill-rule="nonzero">
                <g id="Group" transform="translate(355.000000, 143.000000)">
                    <path d="M39.3,1 C39.2,0.6 39,0.4 38.6,0.3 C37.8,2.77555756e-17 36.4,0.2 35.7,0.2 C34.2,0.2 32.8,0.2 31.3,0.2 C27.3,0.2 23.2,0.2 19.2,0.2 C15.3,0.2 11.4,0.2 7.5,0.2 C5.8,0.2 4,0.3 2.3,0.2 C2,0.2 1.7,0.2 1.5,0.4 C1.4,0.5 1.3,0.6 1.3,0.7 C1,1.5 1.1,2.5 1.1,3.4 C1.1,4.2 1.1,5 1.1,5.8 C1.1,7.9 1.1,10 1.1,12.1 C1.1,16 1.1,19.9 1.1,23.9 C1.1,24.5 1,25.3 1.1,25.9 C1.1,26.1 1.3,26.3 1.5,26.4 C1.6,26.5 1.8,26.5 1.9,26.5 C6.1,26.5 10.3,26.5 14.5,26.5 C15,26.5 15.5,26.5 16,26.5 C16.6,28 17.1,29.4 17.8,30.8 C18.2,31.7 18.8,33.5 19.9,33.4 C20.8,33.3 21.5,31.6 22,30.8 C22.8,29.4 23.7,28 24.5,26.6 C24.5,26.5 24.6,26.5 24.6,26.4 C25.9,26.4 27.3,26.4 28.6,26.4 C31.5,26.4 34.5,26.4 37.4,26.4 C37.5,26.4 37.7,26.4 37.8,26.4 C38,26.4 38.1,26.3 38.2,26.2 C38.6,26.3 39.2,26.1 39.2,25.6 C39.2,23 39.2,20.5 39.2,17.9 C39.2,13.6 39.2,9.3 39.2,5 C39.2,4.3 39.2,3.6 39.2,3 C39.3,2.4 39.4,1.7 39.3,1 Z" id="Path" fill="#92CDFA"></path>
                    <path d="M24.9,27.2 C29.6,27.2 34.2,27.3 38.9,27.3 C39.9,27.3 39.9,25.7 38.9,25.7 C34.2,25.7 29.6,25.6 24.9,25.6 C23.9,25.6 23.9,27.2 24.9,27.2 L24.9,27.2 Z" id="Path" fill="#5EB2FC"></path>
                    <path d="M1.6,27.2 C6.3,27.7 11.1,27.4 15.8,27.1 C16.8,27 16.8,25.4 15.8,25.5 C11.1,25.8 6.3,26 1.6,25.6 C0.6,25.5 0.6,27.1 1.6,27.2 L1.6,27.2 Z" id="Path" fill="#5EB2FC"></path>
                    <path d="M24.1,26.3 C22.6,28.3 21.3,30.5 19.7,32.5 C19,33.3 20.2,34.4 20.8,33.6 C22.5,31.6 23.9,29.3 25.5,27.1 C26.1,26.3 24.7,25.5 24.1,26.3 L24.1,26.3 Z" id="Path" fill="#5EB2FC"></path>
                    <path d="M38.1,1.2 C39.5,9.4 38.1,18.3 38.1,26.5 C38.1,27.5 39.7,27.5 39.7,26.5 C39.7,18.1 41.1,9.1 39.7,0.8 C39.5,-0.2 38,0.2 38.1,1.2 L38.1,1.2 Z" id="Path" fill="#5EB2FC"></path>
                    <g transform="translate(11.000000, 4.000000)" fill="#5EB2FC" id="Path">
                        <path d="M0.3,1.6 C0.3,3.2 0.2,4.8 0.2,6.4 C0.2,6.9 0.6,7.3 1.1,7.3 C2.2,7.3 3.4,7.3 4.5,7.3 C5.2,7.3 6.2,7.5 6.8,7 C7.4,6.5 7.3,5.7 7.3,4.9 C7.2,3.8 7.2,2.6 7.1,1.5 C7.1,1 6.7,0.6 6.2,0.6 C4.7,0.6 3.2,0.6 1.7,0.6 C0.5,0.6 0.5,2.4 1.7,2.4 C3.2,2.4 4.7,2.4 6.2,2.4 C5.9,2.1 5.6,1.8 5.3,1.5 C5.3,2.3 5.4,3.1 5.4,3.8 C5.4,4.3 5.7,5.4 5.5,5.8 C5.7,5.7 5.9,5.5 6,5.4 C5.3,5.7 4.3,5.5 3.6,5.5 C2.7,5.5 1.9,5.5 1,5.5 C1.3,5.8 1.6,6.1 1.9,6.4 C1.9,4.8 2,3.2 2,1.6 C2.1,0.4 0.3,0.4 0.3,1.6 L0.3,1.6 Z"></path>
                        <path d="M0.3,10.8 C0.3,12.4 0.2,14 0.2,15.6 C0.2,16.1 0.6,16.5 1.1,16.5 C2.2,16.5 3.3,16.5 4.4,16.5 C5.1,16.5 6.2,16.7 6.8,16.1 C7.4,15.5 7.2,14.5 7.1,13.8 C7,12.8 7,11.7 6.9,10.7 C6.9,10.2 6.5,9.8 6,9.8 C4.5,9.8 3.1,9.8 1.6,9.8 C0.4,9.8 0.4,11.6 1.6,11.6 C3.1,11.6 4.5,11.6 6,11.6 C5.7,11.3 5.4,11 5.1,10.7 C5.1,11.5 5.2,12.2 5.2,13 C5.2,13.4 5.5,14.6 5.3,15 C5.5,14.9 5.7,14.7 5.8,14.6 C5.1,14.9 4.2,14.7 3.5,14.7 C2.7,14.7 1.8,14.7 1,14.7 C1.3,15 1.6,15.3 1.9,15.6 C1.9,14 2,12.4 2,10.8 C2.1,9.6 0.3,9.6 0.3,10.8 L0.3,10.8 Z"></path>
                        <path d="M10.3,10.8 C10.3,12.4 10.2,14 10.2,15.6 C10.2,16.1 10.6,16.5 11.1,16.5 C12.2,16.5 13.3,16.5 14.4,16.5 C15.1,16.5 16.2,16.7 16.8,16.1 C17.4,15.5 17.2,14.5 17.1,13.8 C17,12.8 17,11.7 16.9,10.7 C16.9,10.2 16.5,9.8 16,9.8 C14.5,9.8 13.1,9.8 11.6,9.8 C10.4,9.8 10.4,11.6 11.6,11.6 C13.1,11.6 14.5,11.6 16,11.6 C15.7,11.3 15.4,11 15.1,10.7 C15.1,11.5 15.2,12.2 15.2,13 C15.2,13.4 15.5,14.6 15.3,15 C15.5,14.9 15.7,14.7 15.8,14.6 C15.1,14.9 14.2,14.7 13.5,14.7 C12.7,14.7 11.8,14.7 11,14.7 C11.3,15 11.6,15.3 11.9,15.6 C11.9,14 12,12.4 12,10.8 C12.1,9.6 10.3,9.6 10.3,10.8 L10.3,10.8 Z"></path>
                        <path d="M12.4,1.2 C12.4,3.1 12.4,5.1 12.4,7 C12.4,8.2 14.2,8.2 14.2,7 C14.2,5.1 14.2,3.1 14.2,1.2 C14.2,5.55111512e-17 12.4,5.55111512e-17 12.4,1.2 L12.4,1.2 Z"></path>
                        <path d="M16.2,3.2 C14.3,3.2 12.3,3.2 10.4,3.2 C9.2,3.2 9.2,5 10.4,5 C12.3,5 14.3,5 16.2,5 C17.3,5 17.3,3.2 16.2,3.2 L16.2,3.2 Z"></path>
                    </g>
                </g>
                <g id="Group" transform="translate(599.000000, 112.000000)">
                    <path d="M4.8,1.2 C4.7,1.3 4.6,1.4 4.6,1.4 L0.3,5.7 C-0.1,6.1 0.2,6.3 0.4,6.6 C0.4,6.6 30,36.2 30,36.2 C30.3,36.5 30.5,36.8 30.9,36.4 L35.2,32.1 C35.7,31.6 35.7,31 35.2,30.5 L5.7,1 C5.4,0.7 5.1,0.9 4.8,1.2 Z" id="Path" fill="#92CDFA"></path>
                    <path d="M8.6,4 L5.6,1 C5.3,0.7 5,0.9 4.7,1.2 C4.6,1.3 4.5,1.4 4.5,1.4 L0.2,5.7 C-0.2,6.1 0.1,6.3 0.3,6.6 C0.3,6.6 1.4,7.7 3.1,9.4 L8.6,4 Z" id="Path" fill="#E3E9ED"></path>
                    <path d="M35,31.2 C35,31.2 30.6,35.5 30.4,35.8 C29.8,36.5 30.5,36.7 31.2,36.9 L37.8,39.6 C38.7,40 39.3,39.7 39.4,39.1 C39.3,38.8 39.3,38.5 39.2,38.3 C38.2,35.8 37,33.7 35.9,31.2 C35.6,30.7 35.3,31 35,31.2 Z" id="Path" fill="#E3E9ED"></path>
                    <path d="M34.7,38.4 L37.7,39.7 C38.6,40.1 39.2,39.8 39.3,39.2 C39.2,38.9 39.2,38.6 39.1,38.4 C38.7,37.4 38.2,36.4 37.8,35.5 L34.7,38.4 Z" id="Path" fill="#5EB2FC"></path>
                    <path d="M8.3,5.8 C16.9,14.4 25.4,22.9 34,31.5 C34.6,32.1 35.6,31.2 35,30.5 C26.4,21.9 17.9,13.4 9.3,4.8 C8.7,4.2 7.7,5.2 8.3,5.8 L8.3,5.8 Z" id="Path" fill="#5EB2FC"></path>
                </g>
                <g id="Group" transform="translate(346.000000, 96.000000)" fill="#5EB2FC">
                    <path d="M40.9,8.4 C38.9,15.8 31.5,20.3 24.1,20.9 C12.9,21.8 9.1,13.2 8.2,3.5 C8.1,2.3 6.2,2.6 6.4,3.8 C7.4,14 11.4,23.1 23,22.8 C31.4,22.6 40.3,17.4 42.6,9 C43,7.9 41.2,7.3 40.9,8.4 L40.9,8.4 Z" id="Path"></path>
                    <path d="M37.4,24.2 C26.5,22.5 15.5,20.8 4.6,19.2 C3.4,19 3.2,20.9 4.4,21.1 C15.3,22.8 26.3,24.5 37.2,26.1 C38.4,26.2 38.6,24.4 37.4,24.2 L37.4,24.2 Z" id="Path"></path>
                    <path d="M18.1,23.2 C19.3,26.7 24.2,24.9 23.2,21.4 C22.2,17.9 16.9,19.4 18,23 C18,23.1 18,23.1 18.1,23.2 Z" id="Path"></path>
                    <path d="M36.1,26 C37.3,29.5 42.2,27.7 41.2,24.2 C40.2,20.7 34.9,22.2 36,25.8 C36.1,25.8 36.1,25.9 36.1,26 Z" id="Path"></path>
                    <path d="M0.9,20.6 C2.1,24.1 7,22.3 6,18.8 C5,15.3 -0.3,16.8 0.8,20.4 C0.8,20.4 0.9,20.5 0.9,20.6 Z" id="Path"></path>
                    <path d="M4.8,4.4 C6,7.9 10.9,6.1 9.9,2.6 C8.9,-0.9 3.6,0.6 4.7,4.2 C4.8,4.3 4.8,4.4 4.8,4.4 Z" id="Path"></path>
                    <path d="M39.3,9.3 C40.5,12.8 45.4,11 44.4,7.5 C43.4,4 38.1,5.5 39.2,9.1 C39.3,9.2 39.3,9.3 39.3,9.3 Z" id="Path"></path>
                </g>
                <g id="Group" transform="translate(622.000000, 62.000000)">
                    <path d="M26.1,15.4 C28.4,13.9 30.1,12.9 30.3,12.7 C31.4,12 32,11.4 32,11 C32,10.6 38.9,4 39,3.6 C39.1,3.2 37.6,0.9 37.6,0.9 C36.9,0.3 28.1,3.6 27.7,3.6 C27.3,3.6 27,3.3 25.5,4.3 C25.1,4.6 23.2,5.7 20.6,7.3 C22,10.3 23.8,13.1 26.1,15.4 Z" id="Path" fill="#2C8CF4"></path>
                    <path d="M12.1,24.2 C11,23.1 10.2,21.9 9.4,20.6 C8.4,19.1 7.6,17.5 6.9,15.9 C3.6,18 1.1,19.6 1,19.8 C0.6,20.4 2.7,23.8 3.1,24.4 C3.8,25.5 5.5,27.6 6.1,27.7 C6.2,27.8 8.8,26.3 12.1,24.2 Z" id="Path" fill="#2C8CF4"></path>
                    <path d="M9.4,20.7 C10.2,22 11.1,23.2 12.1,24.3 C16.5,21.6 22.2,18 26.1,15.5 C23.8,13.2 22,10.4 20.6,7.4 C16.6,9.9 11,13.3 6.8,16 C7.6,17.6 8.4,19.1 9.4,20.7 Z M15.1,14 C17.9,12.3 20.6,11.7 21.3,12.8 C21.9,13.8 20.2,16 17.4,17.7 C14.6,19.4 11.9,20 11.2,18.9 C10.6,17.9 12.3,15.7 15.1,14 Z" id="Shape" fill="#92CDFA"></path>
                    <path d="M17.4,17.7 C20.2,16 21.9,13.8 21.3,12.8 C20.7,11.8 17.9,12.3 15.1,14 C12.3,15.7 10.6,17.9 11.2,18.9 C11.8,20 14.6,19.4 17.4,17.7 Z" id="Path" fill="#5EB2FC"></path>
                </g>
                <g id="Group" transform="translate(290.000000, 72.000000)">
                    <g id="XMLID_19_">
                        <g id="XMLID_20_" transform="translate(28.000000, 65.000000)" fill="#5EB2FC">
                            <path d="M1.4,0.9 C1.4,1 1.5,1.1 1.5,1.1 C0.9,1.4 0.3,1.9 0.3,2.5 C-8.32667268e-17,1.7 0.7,1.1 1.4,0.9 Z" id="Path"></path>
                        </g>
                        <path d="M29.4,66.1 C28.8,66.4 28.2,66.9 28.2,67.5 C28.5,69 27.8,71.3 28.1,73.2 C28.1,73.4 28.2,73.6 28.2,73.8 C29,78.7 31.6,83.2 35.8,86.1 C36.2,86.4 36.6,86.6 37,86.5 C37.2,86.4 37.4,86.3 37.5,86 C37.7,85.7 37.7,85.4 37.8,85.1 C37.9,84.2 37.7,83.3 37.6,82.3 C37.4,79.5 37.4,76.5 36.2,73.9 C35.5,72.2 34.6,70.6 33.4,69.2 C32.4,68 31.4,66.9 30.6,65.9 C30.2,65.9 29.8,65.9 29.4,66.1 Z" id="Path" fill="#92CDFA"></path>
                        <path d="M1.1,0.1 C0.4,0.1 -0.2,0.8 0.1,1.6 C0.1,1.7 0.2,1.7 0.2,1.8 C7.4,16.7 12.7,32.5 18.5,48 C19.6,46.3 21.3,45.1 23.2,44.6 C23.8,44.4 24.5,44.4 25.2,44.4 C25.5,44.4 25.7,44.5 25.9,44.5 C24.2,39.9 22.2,35.4 20.1,31 C15.1,20.7 9.6,10.6 2.8,1.4 C2.3,0.8 1.8,0.1 1.1,0.1 Z" id="Path" fill="#92CDFA"></path>
                        <path d="M25.2,44.4 C24.5,44.4 23.8,44.5 23.2,44.6 C21.3,45.1 19.6,46.4 18.5,48 C18.5,48.1 18.6,48.2 18.6,48.3 C19.2,49.8 19.8,51.4 20.4,52.9 C20.5,53.1 20.6,53.3 20.7,53.5 C21.2,54.6 21.7,55.8 22.2,56.9 C23.8,60.2 25.8,63.3 27.8,66.4 C28.1,66.8 28.1,66.9 28.2,67.3 C28,66.6 28.7,66 29.4,65.7 C29.4,65.8 29.5,65.9 29.5,65.9 C29.9,65.8 30.3,65.7 30.6,65.8 C30.6,65.8 30.3,62.8 30.1,61.6 C29.8,59 29.4,56.5 28.8,54 C28.1,50.7 27.1,47.5 26,44.4 C25.7,44.4 25.5,44.4 25.2,44.4 Z" id="Path" fill="#5EB2FC"></path>
                    </g>
                    <path d="M20.2,49 C20.2,48.9 20.3,48.8 20.3,48.6 C20.3,48.6 20.4,48.3 20.3,48.5 C20.3,48.4 20.4,48.4 20.4,48.3 C20.5,48 20.7,47.7 20.8,47.4 C20.9,47.1 21.1,46.9 21.3,46.6 C21.4,46.4 21.3,46.6 21.3,46.6 C21.3,46.5 21.4,46.5 21.4,46.4 C21.5,46.3 21.6,46.2 21.7,46.1 C21.7,46.1 21.9,46 21.7,46.1 C21.8,46.1 21.8,46 21.9,46 C22,46 22,45.9 22.1,45.9 C22.3,45.8 22,45.9 22.2,45.9 C22.4,45.8 22.6,45.8 22.8,45.7 C22.9,45.7 23,45.7 23.1,45.6 C23.1,45.6 23.3,45.6 23.2,45.6 C24,45.5 24.6,45.6 25.3,45.9 C25.8,46.1 26.4,45.7 26.5,45.2 C26.6,44.6 26.3,44.2 25.8,44 C24.1,43.4 21.9,43.5 20.5,44.7 C19.4,45.6 18.7,47.1 18.2,48.5 C18,49 18.4,49.6 18.9,49.7 C19.5,49.8 20,49.5 20.2,49 L20.2,49 Z" id="Path" fill="#2C8CF4"></path>
                </g>
                <g id="Group" transform="translate(537.000000, 75.000000)">
                    <path d="M32.4,19.2 C32.2,18.9 31.9,18.8 31.6,19 L8.7,35.8 C8.5,35.9 8.5,36.1 8.5,36.3 C8.3,36.5 8.3,36.7 8.5,37 L23.4,55.3 C23.6,55.5 24.1,55.9 24.7,55.5 L45.2,40.4 C45.6,40.1 46.2,39.2 45.9,38.8 L33,19.4 C32.7,19.3 32.5,19.2 32.4,19.2 Z" id="Path" fill="#5EB2FC"></path>
                    <path d="M21.7,52.9 C23.3,53.6 25.2,52.5 24.7,50.6 C24.6,50.3 24.9,49.8 25.3,49.7 C26.4,49.6 27.6,49.2 28.7,48.8 C29.3,48.6 30,48.3 30.4,47.9 C30.5,47.8 30.6,47.7 30.6,47.6 C30.6,47.6 30.6,47.6 30.6,47.6 C30.5,47.5 30.4,47.4 30.3,47.4 C29.6,46.9 30.2,45.8 31,46.1 C33.3,47.1 37.2,44.5 36,41.9 C35.7,41.3 36.3,40.7 36.9,40.9 C37.5,41.1 38.4,41.6 38.9,41.1 C39.4,40.7 39.6,39.7 39.7,39.1 C39.8,38.7 40.1,38.4 40.4,38.4 C39.5,35 37.9,31.7 35.8,29 C33.6,26.2 31,23.8 28.6,21.2 L8.6,35.9 C8.4,36 8.4,36.2 8.4,36.4 C8.2,36.6 8.2,36.8 8.4,37.1 L21.3,52.9 C21.4,52.9 21.6,52.9 21.7,52.9 Z" id="Path" fill="#5EB2FC"></path>
                    <path d="M32.4,19.2 C32.2,18.9 31.9,18.8 31.6,19 L29.9,20.3 C32.4,23.1 35.2,25.6 37.4,28.6 C39.8,31.8 41.5,35.7 42.2,39.6 C42.3,40.1 41.7,40.7 41.2,40.4 C41.1,40.3 41,40.3 40.9,40.2 C40.7,41 40.4,41.7 39.7,42.2 C39.1,42.6 38.3,42.7 37.6,42.5 C37.8,45.2 34.8,47.7 32,47.7 C31.9,48.4 31.2,49.1 30.4,49.6 C29.2,50.2 27.7,50.8 26.3,51 C26.4,53 24.6,54.5 22.7,54.5 L23.4,55.3 C23.6,55.5 24.1,55.9 24.7,55.5 L45.2,40.4 C45.6,40.1 46.2,39.2 45.9,38.8 L33,19.4 C32.7,19.3 32.5,19.2 32.4,19.2 Z" id="Path" fill="#2C8CF4" opacity="0.39"></path>
                    <path d="M27.9,15.9 C26.5,16.4 25.4,17.5 24.2,18.4 C23.3,19 22.4,19.7 21.6,20.3 C20.7,19 19.7,17.8 18.8,16.5 C16.9,13.9 15,11.3 13.1,8.7 C12.1,7.3 8.7,2.4 7.8,1.6 C6.1,0.2 3.3,0.3 1.7,1.8 C0.5,2.9 -0.2,4.6 0.1,6.2 C0.2,6.9 0.5,7.6 1,8.2 C1.7,9 2.3,10 2.9,10.8 C4.6,13.1 6.3,15.4 8,17.7 C9.5,19.8 11,21.8 12.6,23.9 C12.7,24 14,25.8 14,25.8 C12,27.2 10.1,28.7 8.1,30.1 C6.2,31.5 5.2,34 6.2,36.2 C6.4,36.7 6.8,37.2 7.4,37.5 C8.2,37.9 8.7,37.6 9.3,37.1 C13.9,33.8 18.4,30.5 23,27.2 C24.9,25.8 26.9,24.3 28.8,22.9 C29.8,22.2 30.8,21.4 31.7,20.7 C32.2,20.3 32.7,20 33.1,19.6 C34.1,18.9 33.8,17.8 33.2,17 C32.2,15.8 30.5,15.2 28.9,15.5 C28.5,15.7 28.2,15.8 27.9,15.9 Z" id="Path" fill="#5F5FF6"></path>
                    <path d="M16.9,41.4 C20.2,45.2 23,49.4 26.3,53.2 C27,54 28.1,52.8 27.4,52.1 C24.1,48.3 21.3,44.1 18,40.3 C17.3,39.4 16.2,40.6 16.9,41.4 L16.9,41.4 Z" id="Path" fill="#2C8CF4"></path>
                    <path d="M23.9,39.7 C26.4,42.8 28.7,46.1 31.3,49.2 C32,50 33.1,48.9 32.4,48.1 C29.9,45 27.6,41.7 25,38.6 C24.4,37.8 23.3,39 23.9,39.7 L23.9,39.7 Z" id="Path" fill="#2C8CF4"></path>
                    <path d="M33.5,32.7 C36,35.8 38.5,39 41,42.1 C41.7,42.9 42.8,41.8 42.1,41 C39.6,37.9 37.1,34.7 34.6,31.6 C34,30.8 32.8,31.9 33.5,32.7 L33.5,32.7 Z" id="Path" fill="#2C8CF4"></path>
                    <path d="M26.8,31.5 C30.4,35.9 33.7,40.6 37.4,45 C38.1,45.8 39.2,44.7 38.5,43.9 C34.9,39.5 31.6,34.8 27.9,30.4 C27.3,29.6 26.1,30.7 26.8,31.5 L26.8,31.5 Z" id="Path" fill="#2C8CF4"></path>
                    <path d="M9.1,37.9 C17.2,31.6 25.7,25.8 33.8,19.4 C34.6,18.8 33.5,17.6 32.7,18.3 C24.6,24.6 16.1,30.4 8,36.8 C7.2,37.4 8.3,38.5 9.1,37.9 L9.1,37.9 Z" id="Path" fill="#4949E7"></path>
                    <path d="M4,2.1 C8.1,1 11.5,7.9 13.7,10.8 C16,13.9 18.1,17.1 20.1,20.4 C20.6,21.3 22,20.5 21.5,19.6 C18.3,14.4 14.8,9.5 11.1,4.7 C8.8,1.8 7.6,-0.5 3.6,0.6 C2.6,0.9 3,2.4 4,2.1 L4,2.1 Z" id="Path" fill="#4949E7"></path>
                </g>
                <g id="Group" transform="translate(430.000000, 140.000000)">
                    <path d="M71.8,15.6 C67.3,14.3 8.4,1.4 3.8,0.6 C3.2,0.5 2.6,0.4 2.1,0.3 C1.4,0.2 0.6,0.8 1.1,1.7 L30.7,45.2 C31.1,45.7 31.8,45.1 31.8,45.1 L72.1,17.7 C72.1,17.7 72.2,17.6 72.2,17.6 C72.6,17.3 73.4,16.1 71.8,15.6 Z M49.2,21.2 C49.2,21.2 49.2,21.2 49.2,21.2 L34,31.5 C34,31.5 33.7,31.7 33.6,31.5 L22.5,15.2 C22.3,14.9 22.6,14.6 22.9,14.7 C23.1,14.7 23.3,14.8 23.6,14.8 C25.3,15.1 47.4,19.9 49.1,20.4 C49.7,20.6 49.4,21 49.2,21.2 Z" id="Shape" fill="#92CDFA"></path>
                    <path d="M7.1,8.4 C7.9,7.9 8.7,7.3 9.5,6.8 C10.5,6.1 9.6,4.5 8.6,5.2 C7.8,5.7 7,6.3 6.2,6.8 C5.2,7.4 6.1,9.1 7.1,8.4 L7.1,8.4 Z" id="Path" fill="#5EB2FC"></path>
                    <path d="M11.3,14.8 C12.1,14.2 13,13.7 13.8,13.1 C14.8,12.4 13.9,10.8 12.9,11.5 C12.1,12.1 11.2,12.6 10.4,13.2 C9.4,13.9 10.3,15.5 11.3,14.8 L11.3,14.8 Z" id="Path" fill="#5EB2FC"></path>
                    <path d="M16.5,21.8 C17.2,21.3 17.9,20.8 18.7,20.3 C19.1,20 19.3,19.5 19,19 C18.8,18.6 18.1,18.4 17.7,18.7 C17,19.2 16.3,19.7 15.5,20.2 C15.1,20.5 14.9,21 15.2,21.5 C15.4,21.9 16,22.1 16.5,21.8 L16.5,21.8 Z" id="Path" fill="#5EB2FC"></path>
                    <path d="M21.1,28.5 C22,27.9 22.8,27.3 23.7,26.7 C24.7,26 23.8,24.4 22.8,25.1 C21.9,25.7 21.1,26.3 20.2,26.9 C19.2,27.6 20.1,29.2 21.1,28.5 L21.1,28.5 Z" id="Path" fill="#5EB2FC"></path>
                    <path d="M26.6,36.6 C27.6,35.9 28.5,35.3 29.5,34.6 C30.5,33.9 29.6,32.3 28.6,33 C27.6,33.7 26.7,34.3 25.7,35 C24.6,35.6 25.6,37.3 26.6,36.6 L26.6,36.6 Z" id="Path" fill="#5EB2FC"></path>
                    <path d="M33.6,37.9 C34.2,38.8 34.8,39.7 35.4,40.6 C36.1,41.6 37.7,40.7 37,39.7 C36.4,38.8 35.8,37.9 35.2,37 C34.6,36 32.9,37 33.6,37.9 L33.6,37.9 Z" id="Path" fill="#5EB2FC"></path>
                    <path d="M41.6,33.3 C42.1,34 42.6,34.7 43.1,35.5 C43.4,35.9 43.9,36.1 44.4,35.8 C44.8,35.6 45,34.9 44.7,34.5 C44.2,33.8 43.7,33.1 43.2,32.3 C42.9,31.9 42.4,31.7 41.9,32 C41.5,32.3 41.3,32.9 41.6,33.3 L41.6,33.3 Z" id="Path" fill="#5EB2FC"></path>
                    <path d="M49.7,27.3 C50.3,28.2 51,29.2 51.6,30.1 C52.3,31.1 53.9,30.2 53.2,29.2 C52.6,28.3 51.9,27.3 51.3,26.4 C50.7,25.4 49.1,26.3 49.7,27.3 L49.7,27.3 Z" id="Path" fill="#5EB2FC"></path>
                    <path d="M58.7,22.1 C59.2,22.8 59.7,23.5 60.2,24.3 C60.5,24.7 61,24.9 61.5,24.6 C61.9,24.4 62.1,23.7 61.8,23.3 C61.3,22.6 60.8,21.9 60.3,21.1 C60,20.7 59.5,20.5 59,20.8 C58.6,21.1 58.4,21.7 58.7,22.1 L58.7,22.1 Z" id="Path" fill="#5EB2FC"></path>
                </g>
                <g id="Group" transform="translate(432.000000, 79.000000)">
                    <path d="M25.7,16 C27.9,14.3 29.4,13.1 29.6,13 C30.7,12.2 31.2,11.5 31.1,11.2 C31.1,10.8 37.4,3.6 37.4,3.1 C37.5,2.7 35.8,0.5 35.8,0.5 C35,1.41553436e-14 26.6,4.1 26.1,4.1 C25.7,4.1 25.4,3.9 24,5 C23.6,5.3 21.8,6.6 19.4,8.5 C21.2,11.2 23.2,13.9 25.7,16 Z" id="Path" fill="#5EB2FC"></path>
                    <path d="M12.6,26 C11.4,25 10.5,23.9 9.5,22.7 C8.4,21.3 7.4,19.8 6.5,18.2 C3.4,20.6 1.1,22.4 1,22.6 C0.6,23.2 3,26.4 3.5,27 C4.3,28.1 6.2,29.9 6.8,30 C7.1,30.1 9.5,28.4 12.6,26 Z" id="Path" fill="#5EB2FC"></path>
                    <path d="M9.6,22.7 C10.5,23.9 11.5,25 12.7,26 C16.8,22.9 22.2,18.8 25.8,16 C23.3,13.9 21.3,11.3 19.6,8.4 C15.9,11.2 10.6,15.2 6.7,18.2 C7.5,19.8 8.4,21.3 9.6,22.7 Z M14.7,15.5 C17.3,13.5 20,12.7 20.7,13.7 C21.4,14.7 19.9,17 17.3,19 C14.7,21 12,21.8 11.3,20.8 C10.6,19.8 12.1,17.5 14.7,15.5 Z" id="Shape" fill="#92CDFA"></path>
                    <path d="M17.3,19 C19.9,17 21.4,14.7 20.7,13.7 C20,12.7 17.3,13.5 14.7,15.5 C12.1,17.5 10.6,19.8 11.3,20.8 C12,21.8 14.7,21 17.3,19 Z" id="Path" fill="#5EB2FC"></path>
                </g>
                <g id="Group" transform="translate(482.000000, 101.000000)">
                    <path d="M45,17 L30.2,21.2 C30.3,21.1 30.4,20.9 30.4,20.7 C30.6,16.6 30.9,12.5 31.4,8.4 C31.4,8 31,7.6 30.6,7.6 C30.3,7.6 29.5,7.8 29.3,8.1 C26.4,10.7 23.4,13.2 20.2,15.5 C20.1,15.6 20.1,15.6 20,15.7 C18.3,11 16.9,5.9 15.6,1 C15.5,0.6 14.3,0.3 13.9,0.9 L1.2,22.6 C0.9,23.2 1.4,23.8 1.9,23.7 L32.1,40.6 C32.6,40.9 33.1,40.5 33.2,40 C33.5,40.1 33.9,40.1 34.1,39.7 L46.1,18.3 C46.7,17.5 45.5,16.8 45,17 Z" id="Path" fill="#5EB2FC"></path>
                    <path d="M45.2,17.7 C41.1,25.1 37,32.4 32.8,39.8 C32.3,40.7 33.7,41.5 34.2,40.6 C38.3,33.2 42.4,25.9 46.6,18.5 C47.1,17.6 45.7,16.8 45.2,17.7 L45.2,17.7 Z" id="Path" fill="#2C8CF4"></path>
                    <path d="M0.8,24.2 C11.3,30.1 21.9,35.8 32.5,41.6 C33.4,42.1 34.2,40.7 33.3,40.2 C22.8,34.3 12.2,28.6 1.6,22.8 C0.8,22.3 -0.1,23.7 0.8,24.2 L0.8,24.2 Z" id="Path" fill="#2C8CF4"></path>
                    <path d="M14.3,1.5 C15.8,6.3 17.2,11.1 18.7,16 C19,17 20.5,16.6 20.2,15.6 C18.7,10.8 17.3,6 15.8,1.1 C15.6,0.1 14,0.5 14.3,1.5 L14.3,1.5 Z" id="Path" fill="#2C8CF4"></path>
                    <path d="M29.8,8.1 C29.5,12.6 29.2,17.2 29,21.7 C28.9,22.7 30.5,22.7 30.6,21.7 C30.9,17.2 31.2,12.6 31.4,8.1 C31.4,7.1 29.8,7.1 29.8,8.1 L29.8,8.1 Z" id="Path" fill="#2C8CF4"></path>
                </g>
                <g id="Group" transform="translate(394.000000, 32.000000)">
                    <path d="M44.9,7.2 C45.3,6.5 45.5,5.8 45.7,5 C46,3.2 44.9,1.6 43.3,0.9 C41.3,1.11022302e-16 39.6,0.7 38.1,2.2 C36.6,3.7 35.1,5.2 33.6,6.7 C33,7.3 32.4,7.9 31.8,8.5 C31.6,8.7 31.2,9 31.1,9.2 C30.6,9.7 31,10.4 31.5,10.5 C31.5,10.5 31.5,10.6 31.6,10.6 L35.9,14.9 C36,15 36.2,15.1 36.3,15.1 C36.5,15.5 37.1,15.7 37.5,15.3 C38.8,14 40.2,12.6 41.5,11.3 C42.1,10.7 42.7,10.1 43.3,9.5 C43.9,8.8 44.5,8.1 44.9,7.2 Z" id="Path" fill="#8080F1"></path>
                    <path d="M9.8,42.5 L34.3,18 C34.7,17.6 34.5,16.9 34,16.7 C34,16.7 33.9,16.6 33.9,16.6 L33.3,16 L30.2,12.9 L29.6,12.3 C29.6,12.3 29.5,12.2 29.5,12.2 C29.3,11.8 28.7,11.5 28.2,11.9 L3.7,36.4 C3.6,36.4 3.6,36.5 3.5,36.5 C1.6,38.4 0.6,41.1 0.6,43.8 C0.6,44.4 0.7,44.8 1,45.1 C1.3,45.4 1.7,45.5 2.3,45.5 C5,45.6 7.6,44.5 9.6,42.6 C9.8,42.6 9.8,42.6 9.8,42.5 Z" id="Path" fill="#C7EBFF"></path>
                    <path d="M38.2,15.5 L30.3,7.5 C30.1,7.3 29.3,7.2 29,7.5 L26.7,9.8 C26.2,10.2 26.4,10.9 26.6,11.1 L34.7,19.3 C34.7,19.3 34.8,19.4 34.8,19.4 C35.1,19.7 35.6,19.7 35.9,19.4 L38.1,17.2 C38.8,16.7 38.8,16.1 38.2,15.5 Z" id="Path" fill="#5F5FF6"></path>
                    <path d="M44.7,3.2 C45.1,7.8 39.9,10.3 37.5,13.4 C37,14.1 37.9,15 38.4,14.3 C41.1,10.9 46.5,8.3 46,3.2 C45.9,2.4 44.6,2.3 44.7,3.2 L44.7,3.2 Z" id="Path" fill="#5F5FF6"></path>
                    <path d="M26.8,11.7 C29.5,14.2 32.2,16.8 34.9,19.3 C35.5,19.9 36.5,18.9 35.8,18.4 C33.1,15.9 30.4,13.3 27.7,10.8 C27.1,10.1 26.2,11.1 26.8,11.7 L26.8,11.7 Z" id="Path" fill="#4949E7"></path>
                    <path d="M36.3,19.5 C36.4,19.4 36.5,19.3 36.6,19.1 C36.6,19 36.7,19 36.7,18.9 C36.7,18.9 36.7,18.8 36.8,18.8 C36.8,18.8 36.9,18.7 36.8,18.7 C36.7,18.8 36.8,18.7 36.8,18.7 C36.8,18.7 36.8,18.6 36.9,18.6 C36.9,18.5 37,18.5 37,18.4 C37.1,18.3 37.2,18.2 37.3,18 C37.7,17.5 38.1,17.1 38.6,16.7 C38.9,16.5 38.9,16 38.6,15.8 C38.3,15.5 37.9,15.6 37.7,15.8 C36.7,16.7 35.9,17.7 35.2,18.7 C35,19 35.1,19.5 35.4,19.6 C35.8,19.9 36.1,19.8 36.3,19.5 L36.3,19.5 Z" id="Path" fill="#4949E7"></path>
                    <path d="M32.8,17.3 C27.8,22.7 23.2,28.5 18,33.7 C15.3,36.4 12.4,39 9.4,41.3 C7.4,42.8 5,44 2.4,44.2 C1.6,44.3 1.5,45.6 2.4,45.5 C5.2,45.2 7.8,44.1 10,42.4 C12.8,40.3 15.5,37.9 18.1,35.4 C23.6,30 28.5,23.9 33.7,18.2 C34.4,17.6 33.4,16.7 32.8,17.3 L32.8,17.3 Z" id="Path" fill="#92CDFA"></path>
                </g>
                <g id="Group" transform="translate(542.000000, 156.000000)" fill="#5F5FF6">
                    <path d="M3.8,11.5 C10.9,8.7 19,11.8 23.9,17.3 C31.4,25.6 26.8,33.9 19.7,40.5 C18.8,41.3 20.2,42.6 21.1,41.8 C28.6,34.9 33.4,26.1 26.1,17 C20.8,10.4 11.3,6.5 3.2,9.7 C2.2,10.1 2.7,11.9 3.8,11.5 L3.8,11.5 Z" id="Path"></path>
                    <path d="M18.5,4.7 C23.8,14.4 29.1,24.1 34.4,33.9 C35,35 36.6,34 36,32.9 C30.7,23.2 25.4,13.5 20.1,3.7 C19.5,2.7 17.9,3.7 18.5,4.7 L18.5,4.7 Z" id="Path"></path>
                    <path d="M29.4,20.7 C31.5,17.6 27,14.8 24.8,17.7 C22.6,20.6 27,23.9 29.2,20.9 C29.3,20.8 29.4,20.8 29.4,20.7 Z" id="Path"></path>
                    <path d="M20.7,4.6 C22.8,1.5 18.3,-1.3 16.1,1.6 C13.9,4.5 18.3,7.8 20.5,4.8 C20.6,4.8 20.6,4.7 20.7,4.6 Z" id="Path"></path>
                    <path d="M37.7,36 C39.8,32.9 35.3,30.1 33.1,33 C30.9,35.9 35.3,39.2 37.5,36.2 C37.6,36.1 37.7,36 37.7,36 Z" id="Path"></path>
                    <path d="M22.5,42.6 C24.6,39.5 20.1,36.7 17.9,39.6 C15.7,42.5 20.1,45.8 22.3,42.8 C22.4,42.7 22.5,42.7 22.5,42.6 Z" id="Path"></path>
                    <path d="M5.5,12.2 C7.6,9.1 3.1,6.3 0.9,9.2 C-1.3,12.1 3.1,15.4 5.3,12.4 C5.4,12.3 5.5,12.2 5.5,12.2 Z" id="Path"></path>
                </g>
                <g id="Group" transform="translate(322.000000, 27.000000)" fill="#5F5FF6">
                    <path d="M4.1,11.5 C11.2,8.7 19.3,11.8 24.2,17.3 C31.7,25.6 27.1,33.9 20,40.5 C19.1,41.3 20.5,42.6 21.4,41.8 C28.9,34.9 33.7,26.1 26.4,17 C21.1,10.4 11.6,6.5 3.5,9.7 C2.4,10.2 3,12 4.1,11.5 L4.1,11.5 Z" id="Path"></path>
                    <path d="M18.7,4.8 C24,14.5 29.3,24.2 34.6,34 C35.2,35.1 36.8,34.1 36.2,33 C30.9,23.3 25.6,13.6 20.3,3.8 C19.7,2.8 18.1,3.7 18.7,4.8 L18.7,4.8 Z" id="Path"></path>
                    <path d="M29.7,20.8 C31.8,17.7 27.3,14.9 25.1,17.8 C22.9,20.7 27.3,24 29.5,21 C29.6,20.9 29.6,20.8 29.7,20.8 Z" id="Path"></path>
                    <path d="M20.9,4.7 C23,1.6 18.5,-1.2 16.3,1.7 C14.1,4.6 18.5,7.9 20.7,4.9 C20.8,4.9 20.9,4.8 20.9,4.7 Z" id="Path"></path>
                    <path d="M38,36 C40.1,32.9 35.6,30.1 33.4,33 C31.2,35.9 35.6,39.2 37.8,36.2 C37.9,36.2 37.9,36.1 38,36 Z" id="Path"></path>
                    <path d="M22.8,42.7 C24.9,39.6 20.4,36.8 18.2,39.7 C16,42.6 20.4,45.9 22.6,42.9 C22.7,42.8 22.7,42.7 22.8,42.7 Z" id="Path"></path>
                    <path d="M5.8,12.3 C7.9,9.2 3.4,6.4 1.2,9.3 C-1,12.2 3.4,15.5 5.6,12.5 C5.7,12.4 5.7,12.3 5.8,12.3 Z" id="Path"></path>
                </g>
                <g id="Group" transform="translate(562.000000, 24.000000)" fill="#5F5FF6">
                    <path d="M7.6,29.1 C6.5,21.6 11.3,14.4 17.8,10.8 C27.6,5.4 34.6,11.7 39.4,20.2 C40,21.2 41.5,20.2 41,19.2 C35.9,10.3 28.5,3.7 18,8.6 C10.4,12.2 4.4,20.6 5.7,29.2 C6,30.4 7.8,30.3 7.6,29.1 L7.6,29.1 Z" id="Path"></path>
                    <path d="M4.4,13.3 C15.1,10.4 25.7,7.4 36.4,4.5 C37.6,4.2 37,2.4 35.8,2.7 C25.1,5.6 14.5,8.6 3.8,11.5 C2.6,11.9 3.2,13.6 4.4,13.3 L4.4,13.3 Z" id="Path"></path>
                    <path d="M22.5,6.3 C19.9,3.6 16.2,7.3 18.6,10.1 C21,12.9 25.2,9.4 22.7,6.5 C22.6,6.4 22.5,6.4 22.5,6.3 Z" id="Path"></path>
                    <path d="M4.8,11.2 C2.2,8.5 -1.5,12.2 0.9,15 C3.3,17.8 7.5,14.3 5,11.4 C4.9,11.3 4.9,11.2 4.8,11.2 Z" id="Path"></path>
                    <path d="M39.2,1.7 C36.6,-1 32.9,2.7 35.3,5.5 C37.7,8.3 41.9,4.8 39.4,1.9 C39.3,1.8 39.3,1.7 39.2,1.7 Z" id="Path"></path>
                    <path d="M42.2,18 C39.6,15.3 35.9,19 38.3,21.8 C40.7,24.6 44.9,21.1 42.4,18.2 C42.3,18.1 42.3,18.1 42.2,18 Z" id="Path"></path>
                    <path d="M8.7,27.6 C6.1,24.9 2.4,28.6 4.8,31.4 C7.2,34.2 11.4,30.7 8.9,27.8 C8.8,27.7 8.8,27.7 8.7,27.6 Z" id="Path"></path>
                </g>
                <g id="Group" transform="translate(482.000000, 33.000000)">
                    <g id="Path">
                        <path d="M38.3,1.6 C38.2,1.2 37.9,1 37.5,1 C36.6,0.9 35.3,1.2 34.7,1.3 C33.3,1.5 31.8,1.7 30.4,1.9 C26.4,2.5 22.4,3 18.4,3.6 C14.5,4.1 10.7,4.7 6.8,5.2 C5.1,5.4 3.4,5.7 1.7,5.9 C1.4,5.9 1.1,6 0.9,6.2 C0.8,6.3 0.8,6.4 0.7,6.6 C0.5,7.4 0.8,8.4 0.9,9.3 C1,10.1 1.1,10.9 1.2,11.7 C1.5,13.8 1.8,15.9 2.1,17.9 C2.6,21.8 3.2,25.7 3.7,29.5 C3.8,30.1 3.8,30.9 4,31.5 C4.1,31.7 4.2,31.9 4.4,32 C4.5,32 4.7,32 4.9,32 C9,31.4 13.2,30.8 17.3,30.3 C17.8,30.2 18.3,30.2 18.8,30.1 C19.5,31.5 20.3,32.8 21.2,34.1 C21.8,35 22.6,36.7 23.6,36.4 C24.5,36.2 24.9,34.4 25.3,33.6 C25.9,32.1 26.6,30.6 27.2,29.1 C27.2,29 27.2,29 27.3,28.9 C28.6,28.7 29.9,28.5 31.3,28.4 C34.2,28 37.1,27.6 40,27.2 C40.1,27.2 40.3,27.2 40.4,27.1 C40.6,27.1 40.7,27 40.8,26.9 C41.2,27 41.8,26.7 41.7,26.1 C41.3,23.6 41,21 40.6,18.5 C40,14.2 39.4,10 38.8,5.7 C38.7,5 38.6,4.3 38.5,3.7 C38.5,3 38.5,2.3 38.3,1.6 Z" fill="#92CDFA"></path>
                        <path d="M27.8,29.5 C32.4,28.9 37,28.3 41.6,27.7 C42.6,27.6 42.2,26 41.2,26.2 C36.6,26.8 32,27.4 27.4,28 C26.4,28.1 26.8,29.6 27.8,29.5 L27.8,29.5 Z" fill="#5EB2FC"></path>
                        <path d="M4.5,32.8 C9.3,32.6 14,31.7 18.8,30.8 C19.8,30.6 19.4,29.1 18.4,29.3 C13.8,30.2 9.2,31.1 4.6,31.3 C3.5,31.2 3.4,32.8 4.5,32.8 L4.5,32.8 Z" fill="#5EB2FC"></path>
                        <path d="M26.8,28.6 C25.6,30.9 24.5,33.3 23.1,35.5 C22.6,36.4 23.9,37.2 24.5,36.3 C25.9,34.1 26.9,31.7 28.2,29.4 C28.7,28.5 27.3,27.7 26.8,28.6 L26.8,28.6 Z" fill="#5EB2FC"></path>
                        <path d="M37.2,1.9 C39.7,9.8 39.6,18.8 40.7,27 C40.8,28 42.4,28 42.3,27 C41.2,18.7 41.3,9.6 38.8,1.5 C38.4,0.5 36.9,0.9 37.2,1.9 L37.2,1.9 Z" fill="#5EB2FC"></path>
                    </g>
                    <path d="M32.9,23.7 C31.2,20 28.7,17.4 24.8,16 C24.9,16.5 25.1,17 25.2,17.5 C29.3,13.8 26.8,5.8 20.9,6 C18.5,6.1 16.3,7.7 15.3,9.8 C13.7,13.1 15.3,15.8 17.5,18.3 C17.6,17.8 17.6,17.4 17.7,16.9 C14.1,18.6 11.9,22.9 11.2,26.6 C11,27.7 12.7,28.2 12.9,27.1 C13.5,23.8 15.3,20 18.5,18.5 C19.1,18.2 19,17.5 18.7,17.1 C16.3,14.3 15.5,7.9 20.9,8 C24.9,8.1 27,13.4 23.8,16.2 C23.3,16.7 23.6,17.5 24.2,17.7 C27.7,18.9 29.7,21.3 31.2,24.5 C31.9,25.7 33.4,24.8 32.9,23.7 L32.9,23.7 Z" id="Path" fill="#5EB2FC"></path>
                </g>
                <g id="Group" transform="translate(0.000000, 126.000000)" fill="#2C8CF4">
                    <g transform="translate(36.000000, 0.000000)" id="Path">
                        <path d="M29.1,3.9 C32.9,10.2 32.1,18.5 27.9,24.4 C25.9,27.2 23,29.5 19.6,30.2 C13.7,31.3 8.4,27 4.2,23.5 C3.3,22.7 2,24.1 2.9,24.8 C10.6,31.1 20.3,36 28.1,27.2 C33.9,20.7 35.4,10.5 30.8,3 C30.1,1.9 28.5,2.8 29.1,3.9 L29.1,3.9 Z"></path>
                        <path d="M38.7,17.8 C30.3,24.3 21.8,30.8 13.4,37.3 C12.5,38 13.4,39.6 14.3,38.9 C22.7,32.4 31.2,25.9 39.6,19.4 C40.6,18.7 39.7,17.1 38.7,17.8 L38.7,17.8 Z"></path>
                        <path d="M25.1,30.9 C28.6,32.6 30.4,27.8 27.1,25.9 C23.8,24 21.5,28.8 24.9,30.8 C25,30.8 25.1,30.8 25.1,30.9 Z"></path>
                        <path d="M39.1,20.1 C42.6,21.8 44.4,17 41.1,15.1 C37.8,13.2 35.5,18 38.9,20 C38.9,20 39,20.1 39.1,20.1 Z"></path>
                        <path d="M11.9,41.1 C15.4,42.8 17.2,38 13.9,36.1 C10.6,34.2 8.3,39 11.7,41 C11.7,41 11.8,41.1 11.9,41.1 Z"></path>
                        <path d="M2.4,26.4 C5.9,28.1 7.7,23.3 4.4,21.4 C1.1,19.5 -1.2,24.3 2.2,26.3 C2.2,26.4 2.3,26.4 2.4,26.4 Z"></path>
                        <path d="M28.7,5.6 C32.2,7.3 34,2.5 30.7,0.6 C27.4,-1.3 25.1,3.5 28.5,5.5 C28.6,5.5 28.6,5.6 28.7,5.6 Z"></path>
                    </g>
                    <g transform="translate(0.000000, 7.000000)" id="Path">
                        <path d="M14.3,37.9 C10.4,31.5 11.7,23.2 16.2,17.4 C23,8.5 31.9,12.3 39.3,18.3 C40.2,19.1 41.6,17.7 40.6,17 C32.9,10.8 23.6,6.5 15.8,15 C10,21.3 8.2,31.4 12.7,38.9 C13.3,39.9 15,38.9 14.3,37.9 L14.3,37.9 Z"></path>
                        <path d="M5,24.4 C13.4,17.9 21.9,11.4 30.3,4.9 C31.2,4.2 30.3,2.6 29.4,3.3 C21,9.8 12.5,16.3 4.1,22.8 C3.2,23.6 4.1,25.2 5,24.4 L5,24.4 Z"></path>
                        <path d="M18.7,11.4 C15.3,9.8 13.4,14.5 16.6,16.3 C19.8,18.1 22.2,13.3 18.9,11.5 C18.8,11.5 18.7,11.4 18.7,11.4 Z"></path>
                        <path d="M4.7,22.2 C1.3,20.6 -0.6,25.3 2.6,27.1 C5.8,28.9 8.2,24.1 4.9,22.3 C4.8,22.2 4.8,22.2 4.7,22.2 Z"></path>
                        <path d="M31.9,1.2 C28.5,-0.4 26.6,4.3 29.8,6.1 C33,7.9 35.4,3.1 32.1,1.3 C32,1.2 32,1.2 31.9,1.2 Z"></path>
                        <path d="M14.7,36.2 C11.3,34.6 9.4,39.3 12.6,41.1 C15.8,42.9 18.2,38.1 14.9,36.3 C14.9,36.3 14.8,36.3 14.7,36.2 Z"></path>
                    </g>
                </g>
                <g id="Group" transform="translate(38.000000, 61.000000)">
                    <path d="M30.5,24.7 C30.4,24.4 30.1,24.2 29.7,24.3 L3.7,35.7 C3.5,35.8 3.4,35.9 3.4,36.1 C3.2,36.2 3.1,36.5 3.2,36.8 L13.7,58 C13.8,58.3 14.2,58.7 14.9,58.5 L38.2,48.3 C38.7,48.1 39.4,47.4 39.2,46.9 L30.9,25 C30.8,24.8 30.7,24.7 30.5,24.7 Z" id="Path" fill="#92CDFA"></path>
                    <path d="M30.5,24.7 C30.4,24.4 30.1,24.2 29.7,24.3 L27.7,25.2 C29.5,28.5 31.7,31.5 33.2,34.9 C34.8,38.5 35.6,42.8 35.5,46.7 C35.5,47.2 34.8,47.6 34.4,47.3 C34.3,47.2 34.2,47.1 34.1,47.1 C33.7,47.8 33.3,48.5 32.5,48.8 C31.8,49.1 31.1,49 30.4,48.7 C30,51.4 26.5,53.2 23.8,52.5 C23.5,53.2 22.7,53.7 21.8,54 C20.5,54.4 18.9,54.6 17.5,54.5 C17.2,56.5 15.1,57.5 13.2,57.1 L13.7,58 C13.8,58.3 14.2,58.7 14.9,58.5 L38.2,48.3 C38.7,48.1 39.4,47.4 39.2,46.9 L30.9,25 C30.8,24.8 30.7,24.7 30.5,24.7 Z" id="Path" fill="#2C8CF4" opacity="0.39"></path>
                    <path d="M26.9,20.4 C25.4,20.6 24.1,21.4 22.7,22 C21.7,22.4 20.7,22.9 19.7,23.3 C19.1,21.9 18.4,20.4 17.8,19 C16.5,16.1 15.2,13.1 13.9,10.2 C13.2,8.6 11,3.1 10.3,2.1 C8.9,0.4 6.2,-0.1 4.3,0.9 C2.9,1.7 1.8,3.2 1.7,4.8 C1.6,5.5 1.8,6.3 2.1,7 C2.6,8 3,9 3.4,10 C4.5,12.6 5.7,15.2 6.8,17.8 C7.8,20.2 8.9,22.5 9.9,24.9 C9.9,25 10.9,27.1 10.9,27.1 C8.7,28.1 6.4,29.1 4.2,30 C2,30.9 0.5,33.1 1,35.6 C1.1,36.2 1.4,36.8 1.8,37.1 C2.5,37.7 3,37.4 3.8,37.1 C9,34.9 14.2,32.7 19.3,30.4 C21.5,29.4 23.7,28.4 25.9,27.5 C27,27 28.1,26.5 29.2,26 C29.7,25.8 30.3,25.5 30.8,25.3 C31.9,24.8 31.9,23.7 31.4,22.8 C30.7,21.4 29.2,20.5 27.6,20.4 C27.5,20.4 27.2,20.4 26.9,20.4 Z" id="Path" fill="#2C8CF4"></path>
                    <path d="M10.5,42.8 C12.8,47.3 14.7,51.9 17,56.4 C17.5,57.3 18.9,56.5 18.4,55.6 C16.1,51.1 14.2,46.5 11.9,42 C11.4,41.1 10,41.9 10.5,42.8 L10.5,42.8 Z" id="Path" fill="#2C8CF4"></path>
                    <path d="M17.7,42.8 C19.5,46.4 21,50.1 22.8,53.7 C23.3,54.6 24.6,53.8 24.2,52.9 C22.4,49.3 20.9,45.6 19.1,42 C18.7,41.1 17.3,41.9 17.7,42.8 L17.7,42.8 Z" id="Path" fill="#2C8CF4"></path>
                    <path d="M28.6,38.1 C30.4,41.7 32.1,45.3 33.9,48.9 C34.4,49.8 35.7,49 35.3,48.1 C33.5,44.5 31.8,40.9 30,37.3 C29.5,36.3 28.2,37.1 28.6,38.1 L28.6,38.1 Z" id="Path" fill="#2C8CF4"></path>
                    <path d="M22.4,35.4 C25,40.5 27.2,45.8 29.7,50.9 C30.2,51.8 31.5,51 31.1,50.1 C28.5,45 26.3,39.7 23.8,34.6 C23.3,33.7 21.9,34.5 22.4,35.4 L22.4,35.4 Z" id="Path" fill="#2C8CF4"></path>
                    <path d="M3.7,37.8 C13,33.4 22.6,29.6 31.9,25.3 C32.8,24.9 32,23.5 31.1,23.9 C21.8,28.3 12.2,32.1 2.9,36.4 C2,36.8 2.8,38.2 3.7,37.8 L3.7,37.8 Z" id="Path" fill="#1273EB"></path>
                    <path d="M6.6,1.8 C10.6,1.7 11.9,7.4 13.3,10.4 C15.2,14.6 16.8,18.8 18.3,23.1 C18.6,24.1 20.2,23.7 19.8,22.7 C17.9,17.1 15.6,11.7 13.1,6.3 C11.5,2.8 10.8,0.1 6.5,0.2 C5.6,0.2 5.6,1.8 6.6,1.8 L6.6,1.8 Z" id="Path" fill="#1273EB"></path>
                </g>
                <g id="Group" transform="translate(191.000000, 24.000000)" fill="#5EB2FC">
                    <path d="M39,29.2 C32.5,33.4 23.9,31.6 18,27.1 C9.2,20.3 12.2,11.5 18,3.7 C18.7,2.7 17.1,1.8 16.4,2.8 C10.2,11.2 7.3,20.7 16.3,28.3 C22.7,33.6 32.6,35.6 39.9,30.9 C41,30.2 40.1,28.6 39,29.2 L39,29.2 Z" id="Path"></path>
                    <path d="M25.9,38.6 C18.9,30 11.9,21.5 4.9,12.9 C4.1,12 2.8,13.3 3.6,14.2 C10.6,22.8 17.6,31.3 24.6,39.9 C25.4,40.8 26.7,39.5 25.9,38.6 L25.9,38.6 Z" id="Path"></path>
                    <path d="M12.2,24.9 C10.8,28.4 15.6,30.3 17.2,27 C18.8,23.7 13.9,21.3 12.3,24.7 C12.3,24.8 12.2,24.8 12.2,24.9 Z" id="Path"></path>
                    <path d="M23.8,39.1 C22.4,42.6 27.2,44.5 28.8,41.2 C30.4,37.9 25.5,35.5 23.9,38.9 C23.8,38.9 23.8,39 23.8,39.1 Z" id="Path"></path>
                    <path d="M1.2,11.5 C-0.2,15 4.6,16.9 6.2,13.6 C7.8,10.3 2.9,7.9 1.3,11.3 C1.3,11.3 1.2,11.4 1.2,11.5 Z" id="Path"></path>
                    <path d="M14.9,2.1 C13.5,5.6 18.3,7.5 19.9,4.2 C21.5,0.9 16.6,-1.5 15,1.9 C15,2 15,2 14.9,2.1 Z" id="Path"></path>
                    <path d="M37.3,28.8 C35.9,32.3 40.7,34.2 42.3,30.9 C43.9,27.6 39,25.2 37.4,28.6 C37.4,28.7 37.3,28.8 37.3,28.8 Z" id="Path"></path>
                </g>
                <g id="Group" transform="translate(194.000000, 83.000000)">
                    <path d="M43.7,71.3 C43.2,66.7 32.7,7.3 31.6,2.8 C31.5,2.2 31.3,1.6 31.2,1.1 C31,0.5 30.1,-0.1 29.5,0.8 L0.6,44.7 C0.2,45.2 1.2,45.7 1.2,45.7 L41.9,72.5 C41.9,72.5 42,72.5 42,72.6 C42.5,72.7 43.9,73 43.7,71.3 Z M30,52.6 C30,52.6 29.9,52.6 30,52.6 L14.7,42.5 C14.7,42.5 14.4,42.3 14.5,42.1 L25.4,25.6 C25.6,25.3 26,25.5 26,25.7 C26.1,25.9 26.1,26.1 26.2,26.3 C26.6,28 30.5,50.3 30.7,52 C30.7,52.8 30.2,52.7 30,52.6 Z" id="Shape" fill="#92CDFA"></path>
                    <path d="M25.9,8.9 C26.7,9.4 27.5,10 28.3,10.5 C29.3,11.2 30.2,9.5 29.2,8.9 C28.4,8.4 27.6,7.8 26.8,7.3 C25.8,6.6 24.9,8.2 25.9,8.9 L25.9,8.9 Z" id="Path" fill="#5EB2FC"></path>
                    <path d="M21.5,15.2 C22.3,15.8 23.2,16.3 24,16.9 C25,17.6 25.9,15.9 24.9,15.3 C24.1,14.7 23.2,14.2 22.4,13.6 C21.5,12.9 20.5,14.6 21.5,15.2 L21.5,15.2 Z" id="Path" fill="#5EB2FC"></path>
                    <path d="M17,22.6 C17.7,23.1 18.4,23.6 19.2,24 C19.6,24.3 20.2,24.1 20.5,23.7 C20.8,23.2 20.6,22.7 20.2,22.4 C19.5,21.9 18.8,21.4 18,21 C17.6,20.7 17,20.9 16.7,21.3 C16.4,21.8 16.6,22.4 17,22.6 L17,22.6 Z" id="Path" fill="#5EB2FC"></path>
                    <path d="M12.6,29.5 C13.5,30.1 14.4,30.7 15.2,31.2 C16.2,31.9 17.1,30.2 16.1,29.6 C15.2,29 14.3,28.4 13.5,27.9 C12.5,27.2 11.6,28.8 12.6,29.5 L12.6,29.5 Z" id="Path" fill="#5EB2FC"></path>
                    <path d="M7.2,37.6 C8.2,38.2 9.1,38.9 10.1,39.5 C11.1,40.2 12,38.5 11,37.9 C10,37.3 9.1,36.6 8.1,36 C7.1,35.3 6.2,37 7.2,37.6 L7.2,37.6 Z" id="Path" fill="#5EB2FC"></path>
                    <path d="M8.5,44.7 C7.9,45.6 7.3,46.5 6.7,47.4 C6,48.4 7.7,49.3 8.3,48.3 C8.9,47.4 9.5,46.5 10.1,45.6 C10.7,44.6 9.1,43.7 8.5,44.7 L8.5,44.7 Z" id="Path" fill="#5EB2FC"></path>
                    <path d="M15.8,50.3 C15.3,51 14.8,51.7 14.4,52.5 C14.1,52.9 14.3,53.5 14.7,53.8 C15.2,54.1 15.7,53.9 16,53.5 C16.5,52.8 17,52.1 17.4,51.3 C17.7,50.9 17.5,50.3 17.1,50 C16.6,49.7 16.1,49.9 15.8,50.3 L15.8,50.3 Z" id="Path" fill="#5EB2FC"></path>
                    <path d="M24.4,55.5 C23.8,56.4 23.2,57.4 22.5,58.3 C21.8,59.3 23.5,60.2 24.1,59.2 C24.7,58.3 25.3,57.3 26,56.4 C26.7,55.5 25.1,54.5 24.4,55.5 L24.4,55.5 Z" id="Path" fill="#5EB2FC"></path>
                    <path d="M32.7,61.8 C32.2,62.5 31.7,63.2 31.3,64 C31,64.4 31.2,65 31.6,65.3 C32.1,65.6 32.6,65.4 32.9,65 C33.4,64.3 33.9,63.6 34.3,62.8 C34.6,62.4 34.4,61.8 34,61.5 C33.5,61.2 32.9,61.4 32.7,61.8 L32.7,61.8 Z" id="Path" fill="#5EB2FC"></path>
                </g>
                <g id="Group" transform="translate(72.000000, 0.000000)">
                    <g transform="translate(13.000000, 24.000000)" id="Path">
                        <path d="M52.9,6 C52.8,5.1 52.3,4.3 51.2,4.3 L5.4,0.8 C4.1,0.7 3.4,1.6 3.4,2.6 C3.3,2.8 3.3,2.9 3.3,3.1 L0.1,44 C0,45 0.8,46.8 2.9,47 L46.9,50.3 C48.4,50.4 50.1,48.8 50.1,47.8 L53.2,7.3 C53.2,6.7 53.1,6.3 52.9,6 Z" fill="#2C8CF4"></path>
                        <path d="M46.1,8.7 L9.7,5.9 C8.7,5.8 8.1,6.5 8.1,7.3 C8.1,7.4 8,7.5 8,7.7 C7.5,14.4 7,21.2 6.5,27.9 C6.3,30.2 6.2,32.5 6,34.8 C5.9,36 5.2,38.8 5.9,39.9 C6.1,40.3 6.4,40.5 6.7,40.8 C8.5,42.3 12.1,41.8 14.3,42 C17.3,42.2 20.3,42.4 23.2,42.6 C29.8,43.1 36.3,43.7 42.9,44.1 C44.3,44.2 45.4,42.9 45.5,42.2 L47.9,11 C47.8,9.9 47,8.7 46.1,8.7 Z" fill="#92CDFA"></path>
                        <path d="M8.4,27.4 C10.1,25.7 11.8,24.1 13.6,22.5 C14.8,21.4 15.5,20.5 17.3,20.6 C19.4,20.7 19.1,21.2 20.2,22.9 C22.4,26.5 25,29.8 27.9,33 C28.7,33.9 30,32.6 29.2,31.7 C26.8,29 24.5,26.2 22.6,23.2 C21.6,21.7 20.6,18.5 18.7,17.8 C17.2,17.2 16.3,18 15.1,18.9 C12.2,21.1 9.6,23.7 7.1,26.2 C6.2,26.9 7.5,28.2 8.4,27.4 L8.4,27.4 Z" fill="#5EB2FC"></path>
                        <path d="M26.9,28.9 C28.3,27.5 29.7,26.1 31.1,24.7 C32.2,23.7 34.7,20.6 36.1,20.4 C39,19.8 42.9,28.3 44.2,30.2 C44.9,31.2 46.5,30.3 45.8,29.3 C43.9,26.3 42.1,23.1 40,20.3 C39.3,19.4 38.6,18.4 37.3,18.2 C35.7,18 34.3,19.4 33.2,20.3 C30.5,22.6 28,25 25.6,27.6 C24.8,28.4 26.1,29.7 26.9,28.9 L26.9,28.9 Z" fill="#5EB2FC"></path>
                        <path d="M24.1,16.7 C25.9,18.9 29.3,20.2 31.7,18 C33.6,16.3 33.9,13.2 32,11.4 C30.5,9.9 28,9.5 26.1,10.4 C23.9,11.4 22.5,14.3 23.9,16.5 C24.5,17.5 26.2,16.6 25.5,15.6 C24.6,14.2 25.8,12.5 27.1,12 C28.2,11.6 29.5,11.8 30.4,12.5 C31.6,13.5 31.6,15.2 30.6,16.3 C29,18.2 26.5,16.9 25.3,15.3 C24.7,14.4 23.3,15.8 24.1,16.7 L24.1,16.7 Z" fill="#5EB2FC"></path>
                    </g>
                    <g id="Path">
                        <path d="M57.8,11.9 C57.9,11 57.4,10.2 56.3,9.9 L11.5,0.1 C10.3,-0.2 9.4,0.7 9.2,1.6 C9.1,1.7 9.1,1.9 9,2.1 L0.2,42.1 C0,43.1 0.5,45 2.6,45.5 L45.7,55 C47.2,55.3 49,53.9 49.3,53 L58.1,13.3 C58.1,12.7 58,12.3 57.8,11.9 Z" fill="#5EB2FC"></path>
                        <path d="M50.8,13.6 L15.1,5.7 C14.1,5.5 13.5,6.1 13.3,6.9 C13.2,7 13.2,7.1 13.2,7.3 C11.7,13.9 10.3,20.5 8.8,27.1 C8.3,29.3 7.8,31.6 7.3,33.8 C7,35 6,37.7 6.4,38.8 C6.6,39.2 6.8,39.5 7.1,39.8 C8.6,41.6 12.3,41.6 14.4,42 C17.3,42.6 20.2,43.2 23.2,43.9 C29.6,45.3 36,46.9 42.5,48.2 C43.9,48.5 45.1,47.4 45.3,46.6 L52,16 C52.3,15.1 51.6,13.8 50.8,13.6 Z" fill="#92CDFA"></path>
                        <path d="M10.7,26.8 C12.4,25.5 14.2,24.3 15.9,23.1 C18.2,21.5 20.1,20.1 22.6,22.8 C23.8,24.1 24.4,26.8 25.3,28.4 C26.5,30.6 27.8,32.8 29.3,34.9 C30,35.9 31.6,35 30.9,34 C28.8,30.9 27,27.8 25.4,24.4 C24.7,22.8 24,19.6 22.4,18.6 C20.9,17.7 19.6,18.7 18.3,19.5 C15.4,21.3 12.6,23.3 9.9,25.3 C8.8,25.9 9.7,27.5 10.7,26.8 L10.7,26.8 Z" fill="#5EB2FC"></path>
                        <path d="M29,30.8 C30.7,29.5 38.5,22.3 41,24.3 C42,25.1 42.6,27.6 43.1,28.8 C44,30.8 45,32.8 45.9,34.8 C46.4,35.9 48,34.9 47.5,33.9 C46,30.7 44.7,27.3 43,24.2 C42.4,23.1 41.9,22.1 40.6,21.9 C38.7,21.5 36.8,23.2 35.4,24.1 C32.8,25.8 30.2,27.7 27.7,29.6 C26.8,30.2 28.1,31.5 29,30.8 L29,30.8 Z" fill="#5EB2FC"></path>
                        <path d="M27.8,18.3 C29.3,20.8 32.6,22.6 35.3,20.7 C37.4,19.3 38,16.3 36.5,14.2 C35.2,12.4 32.7,11.7 30.6,12.4 C28.2,13.3 26.7,16 27.8,18.3 C28.3,19.4 29.9,18.4 29.4,17.4 C28.7,15.9 30.4,14.4 31.7,14.2 C32.8,14 34,14.4 34.8,15.2 C35.8,16.3 35.7,18.1 34.5,19.1 C32.7,20.7 30.4,19.1 29.4,17.4 C28.8,16.4 27.2,17.3 27.8,18.3 L27.8,18.3 Z" fill="#5EB2FC"></path>
                    </g>
                </g>
                <g id="Group" transform="translate(255.000000, 44.000000)">
                    <path d="M22.8,18.7 C24.4,16.4 25.6,14.9 25.7,14.7 C26.5,13.6 26.8,12.8 26.7,12.5 C26.6,12.2 30.5,3.4 30.5,3 C30.4,2.6 28.2,1 28.2,1 C27.3,0.7 20.3,7 20,7.2 C19.6,7.3 19.3,7.2 18.2,8.7 C17.9,9.1 16.6,10.9 14.8,13.3 C17.1,15.5 19.8,17.4 22.8,18.7 Z" id="Path" fill="#2C8CF4"></path>
                    <path d="M13.1,32.1 C11.7,31.5 10.5,30.7 9.2,29.8 C7.7,28.8 6.4,27.6 5.1,26.3 C2.8,29.5 1.1,31.9 1,32.1 C0.8,32.8 4,35.2 4.6,35.6 C5.7,36.4 8,37.7 8.7,37.5 C8.9,37.6 10.7,35.2 13.1,32.1 Z" id="Path" fill="#2C8CF4"></path>
                    <path d="M9.2,29.8 C10.4,30.7 11.7,31.5 13.1,32.1 C16.2,28 20.2,22.5 22.8,18.8 C19.8,17.5 17.1,15.5 14.7,13.3 C11.9,17.1 8,22.4 5.1,26.4 C6.4,27.6 7.8,28.7 9.2,29.8 Z M12.1,21.5 C14.1,18.9 16.4,17.4 17.4,18.1 C18.4,18.8 17.6,21.5 15.6,24.1 C13.6,26.7 11.3,28.2 10.3,27.5 C9.3,26.8 10.1,24.1 12.1,21.5 Z" id="Shape" fill="#92CDFA"></path>
                    <path d="M15.6,24.1 C17.6,21.5 18.3,18.8 17.4,18.1 C16.4,17.4 14.1,18.9 12.1,21.5 C10.1,24.1 9.4,26.8 10.3,27.5 C11.3,28.2 13.6,26.7 15.6,24.1 Z" id="Path" fill="#5EB2FC"></path>
                </g>
                <g id="Group" transform="translate(118.000000, 59.000000)">
                    <g id="XMLID_17_">
                        <g id="XMLID_18_" transform="translate(13.000000, 57.000000)" fill="#5EB2FC">
                            <path d="M2,1.6 C1.9,1.7 1.9,1.8 1.9,1.8 C1.4,1.4 0.6,1.1 0.1,1.4 C0.6,0.8 1.5,1.1 2,1.6 Z" id="Path"></path>
                        </g>
                        <path d="M14.9,58.7 C14.4,58.3 13.6,58 13.1,58.3 C11.9,59.4 9.6,59.8 8,61 C7.8,61.1 7.7,61.3 7.5,61.4 C3.6,64.5 1,69 0.5,74.1 C0.4,74.6 0.5,75.1 0.8,75.3 C0.9,75.4 1.2,75.5 1.5,75.5 C1.8,75.5 2.2,75.4 2.5,75.3 C3.4,74.9 4,74.3 4.8,73.8 C7.1,72.2 9.8,70.8 11.5,68.4 C12.6,66.9 13.5,65.4 14.2,63.7 C14.8,62.3 15.3,60.8 15.7,59.6 C15.4,59.3 15.2,59 14.9,58.7 Z" id="Path" fill="#92CDFA"></path>
                        <path d="M58.2,1.5 C57.9,0.9 57,0.7 56.4,1.4 C56.3,1.5 56.3,1.5 56.3,1.6 C46.9,15.2 35.7,27.6 25.1,40.3 C27.1,40.4 29,41.3 30.4,42.7 C30.9,43.2 31.3,43.7 31.6,44.3 C31.7,44.5 31.8,44.8 31.8,45 C35,41.3 37.9,37.3 40.6,33.3 C47.1,23.9 53.1,14.1 57.8,3.6 C58.3,2.9 58.6,2.1 58.2,1.5 Z" id="Path" fill="#92CDFA"></path>
                        <path d="M31.6,44.4 C31.3,43.8 30.9,43.2 30.4,42.7 C29,41.3 27.1,40.4 25.1,40.3 C25,40.4 25,40.5 24.9,40.6 C23.9,41.9 22.8,43.1 21.8,44.4 C21.7,44.6 21.5,44.8 21.4,44.9 C20.6,45.9 19.9,46.9 19.2,47.9 C17.1,51 15.4,54.2 13.7,57.5 C13.5,58 13.4,58 13.1,58.3 C13.6,57.8 14.5,58.1 15,58.5 C14.9,58.6 14.9,58.7 14.9,58.7 C15.2,59 15.4,59.3 15.5,59.6 C15.5,59.6 17.9,57.8 18.9,57.1 C21,55.5 23,53.9 24.9,52.2 C27.4,50 29.7,47.6 31.9,45 C31.8,44.8 31.8,44.6 31.6,44.4 Z" id="Path" fill="#5EB2FC"></path>
                    </g>
                    <path d="M25.2,42.2 C25.3,42.2 25.4,42.2 25.4,42.2 C25.6,42.2 25.3,42.2 25.4,42.2 C25.6,42.2 25.7,42.2 25.9,42.1 C26.2,42.1 26.5,42.1 26.9,42.1 C27.1,42.1 27.2,42.1 27.4,42.1 C27.5,42.1 27.6,42.1 27.6,42.1 C27.7,42.1 27.8,42.1 27.7,42.1 C27.9,42.1 28,42.2 28.2,42.2 C28.3,42.2 28.3,42.2 28.4,42.3 C28.4,42.3 28.7,42.4 28.5,42.3 C28.6,42.4 28.7,42.4 28.8,42.5 C29,42.6 28.7,42.4 28.9,42.6 C29,42.7 29,42.7 29.1,42.8 C29.2,42.9 29.4,43.1 29.5,43.2 C29.5,43.2 29.7,43.4 29.6,43.3 C29.5,43.2 29.7,43.4 29.7,43.4 C29.8,43.5 29.9,43.7 30,43.9 C30,44 30.1,44 30.1,44.1 C30.2,44.4 30,43.9 30.2,44.2 C30.3,44.5 30.4,44.9 30.5,45.2 C30.6,45.7 31.3,46.1 31.7,45.9 C32.3,45.7 32.5,45.2 32.4,44.7 C32.3,43.9 31.9,43 31.4,42.3 C30.9,41.6 30.3,40.9 29.5,40.6 C28,39.9 26.3,40.1 24.7,40.3 C24.2,40.4 23.8,41.1 24,41.5 C24.1,42.1 24.6,42.3 25.2,42.2 L25.2,42.2 Z" id="Path" fill="#2C8CF4"></path>
                </g>
                <g id="Group" transform="translate(140.000000, 142.000000)">
                    <g id="Path">
                        <path d="M36.8,1.6 C36.6,1.2 36.4,1.1 36,1.1 C35.1,1.1 33.8,1.6 33.2,1.7 C31.8,2.1 30.4,2.4 29,2.8 C25.1,3.8 21.2,4.7 17.3,5.7 C13.5,6.6 9.7,7.6 6,8.5 C4.3,8.9 2.7,9.4 1,9.7 C0.7,9.8 0.4,9.9 0.3,10.1 C0.2,10.2 0.2,10.4 0.2,10.5 C0.1,11.4 0.5,12.3 0.7,13.2 C0.9,14 1.1,14.8 1.3,15.5 C1.8,17.5 2.3,19.6 2.8,21.6 C3.7,25.4 4.7,29.2 5.6,33 C5.7,33.6 5.8,34.4 6.1,34.9 C6.2,35.1 6.4,35.3 6.6,35.3 C6.7,35.3 6.9,35.3 7.1,35.3 C11.2,34.3 15.2,33.3 19.3,32.3 C19.8,32.2 20.3,32.1 20.7,31.9 C21.6,33.2 22.5,34.5 23.5,35.7 C24.2,36.5 25.1,38.1 26.1,37.8 C27,37.5 27.2,35.7 27.5,34.8 C28,33.3 28.4,31.7 28.9,30.1 C28.9,30 28.9,30 28.9,29.9 C30.2,29.6 31.5,29.3 32.8,28.9 C35.6,28.2 38.5,27.5 41.3,26.8 C41.4,26.8 41.6,26.7 41.7,26.7 C41.9,26.7 42,26.6 42.1,26.4 C42.5,26.4 43,26.1 42.9,25.5 C42.3,23 41.7,20.5 41,18.1 C40,13.9 38.9,9.7 37.9,5.6 C37.7,4.9 37.6,4.3 37.4,3.6 C37.1,2.9 37,2.3 36.8,1.6 Z" fill="#92CDFA"></path>
                        <path d="M29.2,30.5 C33.7,29.4 38.3,28.4 42.8,27.2 C43.8,27 43.4,25.4 42.4,25.7 C37.9,26.8 33.3,27.8 28.8,29 C27.8,29.2 28.2,30.7 29.2,30.5 L29.2,30.5 Z" fill="#5EB2FC"></path>
                        <path d="M6.6,36.2 C11.3,35.5 15.8,34.1 20.3,32.7 C21.3,32.4 20.9,30.9 19.9,31.2 C15.4,32.6 10.8,34 6.2,34.7 C5.2,34.8 5.6,36.3 6.6,36.2 L6.6,36.2 Z" fill="#5EB2FC"></path>
                        <path d="M28.2,29.8 C27.2,32.1 26.5,34.6 25.4,36.8 C25,37.7 26.3,38.5 26.8,37.6 C28,35.2 28.8,32.7 29.8,30.2 C30.1,29.3 28.6,28.9 28.2,29.8 L28.2,29.8 Z" fill="#5EB2FC"></path>
                        <path d="M35.7,2.1 C39,9.7 39.8,18.7 41.8,26.7 C42,27.7 43.6,27.3 43.3,26.3 C41.3,18.1 40.4,9.1 37.1,1.4 C36.7,0.3 35.3,1.2 35.7,2.1 L35.7,2.1 Z" fill="#5EB2FC"></path>
                    </g>
                    <g transform="translate(11.000000, 9.000000)" fill="#5EB2FC" id="Path">
                        <path d="M12.7,16.6 C9.6,15.4 6.3,13.7 4.2,11.2 C3.6,10.5 3,9.7 2.7,8.8 C2.2,7.3 2.2,6.5 3.6,5.7 C5,4.9 5.5,5.3 6.8,6.1 C7.6,6.6 8.3,7.2 8.9,7.8 C9.7,8.6 11,7.3 10.2,6.5 C8.6,4.9 6.2,2.9 3.7,3.2 C1.3,3.4 0.4,5.9 0.7,8 C1.4,13.4 7.8,16.6 12.3,18.3 C13.3,18.8 13.8,17 12.7,16.6 L12.7,16.6 Z"></path>
                        <path d="M13.5,17.8 C16.7,14.1 21,7.3 17.7,2.4 C14.3,-2.6 9.9,3.4 8.6,6.9 C8.2,8 10,8.5 10.3,7.4 C10.8,6.1 11.5,4.4 12.5,3.5 C14,2.2 15.9,2.5 16.6,4.5 C16.9,5.4 16.9,6.4 16.8,7.3 C16.4,10.7 14.3,13.9 12.1,16.5 C11.4,17.4 12.7,18.7 13.5,17.8 L13.5,17.8 Z"></path>
                    </g>
                </g>
            </g>
        </g>
    </g>
</svg>