<?xml version="1.0" encoding="UTF-8"?>
<svg width="704px" height="492px" viewBox="0 0 704 492" version="1.1" xmlns="http://www.w3.org/2000/svg" xmlns:xlink="http://www.w3.org/1999/xlink">
    <!-- Generator: Sketch 63.1 (92452) - https://sketch.com -->
    <title>Slice Copy</title>
    <desc>Created with Sketch.</desc>
    <defs>
        <path d="M315.924,10.867 C368.279,-14.687 425.977,8.097 466.103,45.267 C501.969,78.491 534.785,131.293 531.749,179.846 C530.28,203.358 520.402,225.875 498.391,244.688 C475.259,264.462 444.998,274.367 414.761,277.806 C362.035,283.801 306.412,276.441 254.113,269.539 C190.457,261.138 127.01,251.156 63.85,239.607 C48.845,236.864 33.28,233.787 21.041,224.681 C-31.903,185.286 25.768,99.074 76.323,90.504 C105.543,85.554 134.964,90.087 164.132,92.911 C187.204,95.145 216.178,100.466 236.601,86.576" id="path-1"></path>
        <linearGradient x1="-2.77621108%" y1="49.9999529%" x2="103.712674%" y2="49.9999529%" id="linearGradient-3">
            <stop stop-color="#5DB1FB" offset="0%"></stop>
            <stop stop-color="#5E5EF6" offset="100%"></stop>
        </linearGradient>
    </defs>
    <g id="Page-1" stroke="none" stroke-width="1" fill="none" fill-rule="evenodd">
        <g id="Derecha-Copy" transform="translate(7.000000, 105.000000)">
            <g id="Group-3" opacity="0.499186198">
                <mask id="mask-2" fill="white">
                    <use xlink:href="#path-1"></use>
                </mask>
                <g id="Clip-2"></g>
                <path d="M531.749,179.846 C534.785,131.293 501.969,78.491 466.103,45.267 C425.977,8.097 368.279,-14.687 315.924,10.867 C280.896,27.965 267.537,65.536 236.601,86.576 C216.178,100.466 187.204,95.145 164.132,92.911 C134.964,90.087 105.543,85.554 76.323,90.504 C25.768,99.074 -31.903,185.286 21.041,224.681 C33.28,233.787 48.845,236.864 63.85,239.607 C127.01,251.156 190.457,261.138 254.113,269.539 C306.412,276.441 362.035,283.801 414.761,277.806 C444.998,274.367 475.259,264.462 498.391,244.688 C520.402,225.875 530.28,203.358 531.749,179.846" id="Fill-1" fill="url(#linearGradient-3)" mask="url(#mask-2)"></path>
            </g>
            <g id="Bruto-04" transform="translate(28.000000, 39.000000)" fill-rule="nonzero">
                <g id="Group" transform="translate(38.000000, 130.000000)" fill="#5EB2FC">
                    <g transform="translate(36.000000, 0.000000)" id="Path">
                        <path d="M28.6,3.8 C32.4,10.1 31.6,18.4 27.4,24.3 C25.4,27.1 22.5,29.4 19.1,30.1 C13.2,31.2 7.9,26.9 3.7,23.4 C2.8,22.6 1.5,24 2.4,24.7 C10.1,31 19.8,35.9 27.6,27.1 C33.4,20.6 34.9,10.4 30.3,2.9 C29.6,1.8 28,2.8 28.6,3.8 L28.6,3.8 Z"></path>
                        <path d="M38.2,17.7 C29.8,24.2 21.3,30.7 12.9,37.2 C12,37.9 12.9,39.5 13.8,38.8 C22.2,32.3 30.7,25.8 39.1,19.3 C40.1,18.6 39.2,17 38.2,17.7 L38.2,17.7 Z"></path>
                        <path d="M24.6,30.8 C28.1,32.5 29.9,27.7 26.6,25.8 C23.3,23.9 21,28.7 24.4,30.7 C24.5,30.7 24.6,30.8 24.6,30.8 Z"></path>
                        <path d="M38.6,20 C42.1,21.7 43.9,16.9 40.6,15 C37.3,13.1 35,17.9 38.4,19.9 C38.4,20 38.5,20 38.6,20 Z"></path>
                        <path d="M11.4,41 C14.9,42.7 16.7,37.9 13.4,36 C10.1,34.1 7.8,38.9 11.2,40.9 C11.3,41 11.3,41 11.4,41 Z"></path>
                        <path d="M1.9,26.3 C5.4,28 7.2,23.2 3.9,21.3 C0.6,19.4 -1.7,24.2 1.7,26.2 C1.7,26.3 1.8,26.3 1.9,26.3 Z"></path>
                        <path d="M28.2,5.5 C31.7,7.2 33.5,2.4 30.2,0.5 C26.9,-1.4 24.6,3.4 28,5.4 C28.1,5.4 28.1,5.5 28.2,5.5 Z"></path>
                    </g>
                    <g transform="translate(0.000000, 7.000000)" id="Path">
                        <path d="M13.8,37.8 C9.9,31.4 11.2,23.1 15.7,17.3 C22.5,8.4 31.4,12.2 38.8,18.2 C39.7,19 41.1,17.6 40.1,16.9 C32.4,10.7 23.1,6.4 15.3,14.9 C9.5,21.2 7.7,31.3 12.2,38.8 C12.8,39.8 14.5,38.9 13.8,37.8 L13.8,37.8 Z"></path>
                        <path d="M4.5,24.4 C12.9,17.9 21.4,11.4 29.8,4.9 C30.7,4.2 29.8,2.6 28.9,3.3 C20.5,9.8 12,16.3 3.6,22.8 C2.7,23.5 3.6,25.1 4.5,24.4 L4.5,24.4 Z"></path>
                        <path d="M18.2,11.3 C14.8,9.7 12.9,14.4 16.1,16.2 C19.3,18 21.7,13.2 18.4,11.4 C18.3,11.4 18.2,11.4 18.2,11.3 Z"></path>
                        <path d="M4.2,22.1 C0.8,20.5 -1.1,25.2 2.1,27 C5.3,28.8 7.7,24 4.4,22.2 C4.4,22.2 4.3,22.1 4.2,22.1 Z"></path>
                        <path d="M31.4,1.1 C28,-0.5 26.1,4.2 29.3,6 C32.5,7.8 34.9,3 31.6,1.2 C31.5,1.2 31.5,1.1 31.4,1.1 Z"></path>
                        <path d="M14.2,36.2 C10.8,34.6 8.9,39.3 12.1,41.1 C15.3,42.9 17.7,38.1 14.4,36.3 C14.4,36.2 14.3,36.2 14.2,36.2 Z"></path>
                    </g>
                </g>
                <g id="Group" transform="translate(0.000000, 18.000000)">
                    <path d="M36.1,3.7 C36,3.6 35.9,3.6 35.8,3.5 L30.5,0.7 C30,0.4 29.8,0.9 29.5,1.3 C29.5,1.3 2.7,51.2 2.7,51.2 C2.5,51.7 2.2,52.1 2.7,52.4 L8,55.3 C8.6,55.6 9.3,55.3 9.7,54.5 L36.5,4.6 C36.7,4.2 36.4,3.9 36.1,3.7 Z" id="Path" fill="#5EB2FC"></path>
                    <path d="M33.7,9.7 L36.4,4.7 C36.6,4.2 36.4,4 36,3.7 C35.9,3.6 35.8,3.6 35.7,3.5 L30.4,0.7 C29.9,0.4 29.7,0.9 29.4,1.3 C29.4,1.3 28.4,3.1 26.9,6 L33.7,9.7 Z" id="Path" fill="#E3E9ED"></path>
                    <path d="M8.9,54.6 C8.9,54.6 3.5,51.7 3.2,51.5 C2.4,51.1 2.3,51.9 2.3,52.7 L1,60.7 C0.9,61.8 1.2,62.3 1.9,62.1 C2.1,61.9 2.5,61.7 2.7,61.5 C5,59.5 6.8,57.5 9,55.4 C9.5,55 9.2,54.8 8.9,54.6 Z" id="Path" fill="#92CDFA"></path>
                    <path d="M1.6,57 L1,60.7 C0.9,61.8 1.2,62.3 1.9,62.1 C2.1,61.9 2.5,61.7 2.7,61.5 C3.6,60.7 4.5,59.8 5.4,59 L1.6,57 Z" id="Path" fill="#2C8CF4"></path>
                    <path d="M32.7,10.1 C24.8,24.8 17,39.5 9.1,54.2 C8.7,55 9.9,55.7 10.3,54.9 C18.1,40.2 26,25.5 33.9,10.8 C34.4,10 33.2,9.3 32.7,10.1 L32.7,10.1 Z" id="Path" fill="#2C8CF4"></path>
                </g>
                <g id="Group" transform="translate(64.000000, 67.000000)">
                    <path d="M33.9,17.2 C33.7,16.9 33.4,16.8 33,17.1 L11.4,35.6 C11.2,35.7 11.2,35.9 11.2,36.1 C11.1,36.3 11,36.6 11.2,36.8 L27.5,54 C27.7,54.2 28.2,54.6 28.8,54.1 L48.1,37.6 C48.5,37.3 49,36.4 48.7,35.9 L34.4,17.4 C34.3,17.2 34.1,17.2 33.9,17.2 Z" id="Path" fill="#5EB2FC"></path>
                    <path d="M25.8,51.6 C27.5,52.1 29.3,50.9 28.6,49.1 C28.5,48.8 28.8,48.3 29.1,48.2 C30.2,48 31.4,47.5 32.4,47 C33,46.7 33.6,46.4 34,46 C34.1,45.9 34.2,45.8 34.2,45.7 C34.2,45.7 34.2,45.7 34.2,45.7 C34.1,45.6 34,45.6 33.9,45.5 C33.2,45.1 33.7,43.9 34.5,44.2 C36.9,45 40.6,42.1 39.1,39.6 C38.8,39.1 39.3,38.3 39.9,38.5 C40.5,38.7 41.4,39 42,38.6 C42.5,38.2 42.6,37.1 42.6,36.5 C42.6,36.1 42.9,35.8 43.3,35.8 C42.2,32.5 40.4,29.3 38.1,26.8 C35.7,24.2 32.9,22 30.3,19.5 L11.4,35.6 C11.2,35.7 11.2,35.9 11.2,36.1 C11.1,36.3 11,36.6 11.2,36.8 L25.3,51.6 C25.5,51.6 25.6,51.5 25.8,51.6 Z" id="Path" fill="#5EB2FC"></path>
                    <path d="M33.9,17.2 C33.7,16.9 33.4,16.8 33,17.1 L31.4,18.5 C34.1,21.1 37.1,23.4 39.5,26.2 C42.1,29.2 44.1,33 45.1,36.9 C45.2,37.4 44.7,38 44.2,37.8 C44.1,37.8 44,37.7 43.9,37.7 C43.8,38.5 43.5,39.3 42.9,39.8 C42.3,40.3 41.6,40.4 40.8,40.3 C41.2,43 38.4,45.7 35.6,45.9 C35.5,46.6 34.9,47.4 34.1,47.9 C33,48.6 31.5,49.3 30.1,49.6 C30.4,51.6 28.7,53.2 26.7,53.3 L27.4,54.1 C27.6,54.3 28.1,54.7 28.7,54.2 L48,37.7 C48.4,37.4 48.9,36.5 48.6,36 L34.4,17.4 C34.3,17.2 34.1,17.2 33.9,17.2 Z" id="Path" fill="#2C8CF4" opacity="0.39"></path>
                    <path d="M29.2,14.2 C27.8,14.8 26.8,16 25.7,16.9 C24.9,17.6 24,18.3 23.2,19 C22.2,17.8 21.2,16.6 20.1,15.4 C18,13 15.9,10.5 13.8,8.1 C12.7,6.8 9,2.1 8,1.5 C6.2,0.3 3.4,0.5 1.9,2.1 C0.8,3.3 0.2,5 0.6,6.6 C0.8,7.3 1.1,8 1.6,8.5 C2.3,9.3 3,10.2 3.7,11 C5.6,13.2 7.4,15.3 9.3,17.5 C11,19.5 12.6,21.4 14.3,23.4 C14.4,23.5 15.8,25.2 15.8,25.2 C13.9,26.8 12.1,28.4 10.2,30 C8.4,31.5 7.6,34.1 8.8,36.3 C9.1,36.8 9.5,37.3 10.1,37.5 C10.9,37.9 11.4,37.5 12,37 C16.3,33.4 20.6,29.8 24.9,26.1 C26.7,24.5 28.5,22.9 30.4,21.4 C31.3,20.6 32.2,19.8 33.2,19 C33.6,18.6 34.1,18.2 34.5,17.8 C35.4,17 35.1,16 34.4,15.2 C33.3,14 31.6,13.6 30,14 C29.8,14 29.5,14.1 29.2,14.2 Z" id="Path" fill="#2C8CF4"></path>
                    <path d="M20.1,40.4 C23.6,44 26.8,47.9 30.3,51.5 C31,52.2 32.2,51.1 31.4,50.4 C27.9,46.8 24.7,42.9 21.2,39.3 C20.5,38.5 19.3,39.7 20.1,40.4 L20.1,40.4 Z" id="Path" fill="#2C8CF4"></path>
                    <path d="M27,38.3 C29.8,41.2 32.3,44.3 35.1,47.2 C35.8,47.9 36.9,46.8 36.2,46.1 C33.4,43.2 30.9,40.1 28.1,37.2 C27.4,36.4 26.3,37.5 27,38.3 L27,38.3 Z" id="Path" fill="#2C8CF4"></path>
                    <path d="M36,30.5 C38.8,33.4 41.4,36.4 44.2,39.3 C44.9,40 46,38.9 45.3,38.2 C42.5,35.3 39.9,32.3 37.1,29.4 C36.4,28.7 35.3,29.8 36,30.5 L36,30.5 Z" id="Path" fill="#2C8CF4"></path>
                    <path d="M29.2,29.8 C33.2,33.9 36.8,38.4 40.7,42.5 C41.4,43.2 42.5,42.1 41.8,41.4 C37.8,37.3 34.2,32.8 30.3,28.7 C29.7,27.9 28.5,29.1 29.2,29.8 L29.2,29.8 Z" id="Path" fill="#2C8CF4"></path>
                    <path d="M12.1,37.6 C19.7,30.7 27.7,24.3 35.3,17.4 C36.1,16.7 34.9,15.6 34.2,16.3 C26.6,23.2 18.6,29.6 11,36.5 C10.2,37.2 11.3,38.3 12.1,37.6 L12.1,37.6 Z" id="Path" fill="#1273EB"></path>
                    <path d="M4.3,2.3 C8.1,1 11.7,6.8 13.9,9.3 C16.7,12.5 19.3,15.8 21.7,19.2 C22.3,20 23.7,19.2 23.1,18.4 C19.8,13.8 16.2,9.4 12.4,5.2 C9.8,2.3 8.1,-0.7 3.9,0.7 C3,1.1 3.4,2.6 4.3,2.3 L4.3,2.3 Z" id="Path" fill="#1273EB"></path>
                </g>
                <g id="Group" transform="translate(229.000000, 21.000000)" fill="#5EB2FC">
                    <path d="M38.5,29.5 C32,33.7 23.4,31.9 17.5,27.4 C8.7,20.6 11.7,11.8 17.5,4 C18.2,3 16.6,2.1 15.9,3.1 C9.7,11.5 6.8,21 15.8,28.6 C22.2,33.9 32.1,35.9 39.4,31.2 C40.4,30.5 39.5,28.9 38.5,29.5 L38.5,29.5 Z" id="Path"></path>
                    <path d="M25.4,38.8 C18.4,30.2 11.4,21.7 4.4,13.1 C3.6,12.2 2.3,13.5 3.1,14.4 C10.1,23 17.1,31.5 24.1,40.1 C24.8,41.1 26.1,39.8 25.4,38.8 L25.4,38.8 Z" id="Path"></path>
                    <path d="M11.7,25.2 C10.3,28.7 15.1,30.6 16.7,27.3 C18.3,24 13.4,21.6 11.8,25 C11.7,25.1 11.7,25.1 11.7,25.2 Z" id="Path"></path>
                    <path d="M23.2,39.3 C21.8,42.8 26.6,44.7 28.2,41.4 C29.8,38.1 24.9,35.7 23.3,39.1 C23.3,39.2 23.3,39.3 23.2,39.3 Z" id="Path"></path>
                    <path d="M0.7,11.7 C-0.7,15.2 4.1,17.1 5.7,13.8 C7.3,10.5 2.4,8.1 0.8,11.5 C0.7,11.6 0.7,11.7 0.7,11.7 Z" id="Path"></path>
                    <path d="M14.4,2.4 C13,5.9 17.8,7.8 19.4,4.5 C21,1.2 16.1,-1.2 14.5,2.2 C14.4,2.3 14.4,2.3 14.4,2.4 Z" id="Path"></path>
                    <path d="M36.7,29.1 C35.3,32.6 40.1,34.5 41.7,31.2 C43.3,27.9 38.4,25.5 36.8,28.9 C36.8,29 36.8,29.1 36.7,29.1 Z" id="Path"></path>
                </g>
                <g id="Group" transform="translate(281.000000, 119.000000)">
                    <path d="M64.4,35 C60.5,32.5 7.5,3.6 3.3,1.6 C2.8,1.3 2.2,1.1 1.7,0.8 C1.1,0.5 0.1,0.9 0.4,1.9 L16.6,51.9 C16.8,52.5 17.7,52.1 17.7,52.1 L64.1,37.1 C64.2,37.1 64.2,37.1 64.2,37 C64.7,36.9 65.8,35.9 64.4,35 Z M41.2,34.1 C41.2,34.1 41.2,34.1 41.2,34.1 L23.7,39.8 C23.7,39.8 23.3,40 23.3,39.7 L17.2,20.9 C17.1,20.5 17.5,20.4 17.7,20.5 C17.9,20.6 18.1,20.7 18.3,20.8 C19.9,21.6 39.7,32.4 41.2,33.3 C41.8,33.6 41.4,34 41.2,34.1 Z" id="Shape" fill="#92CDFA"></path>
                    <path d="M4.4,10 C5.3,9.7 6.3,9.4 7.2,9.1 C8.3,8.7 7.9,6.9 6.7,7.3 C5.8,7.6 4.8,7.9 3.9,8.2 C2.8,8.6 3.3,10.4 4.4,10 L4.4,10 Z" id="Path" fill="#5EB2FC"></path>
                    <path d="M6.6,17.3 C7.6,17 8.5,16.7 9.5,16.4 C10.6,16 10.2,14.2 9,14.6 C8,14.9 7.1,15.2 6.1,15.5 C5,15.9 5.5,17.7 6.6,17.3 L6.6,17.3 Z" id="Path" fill="#5EB2FC"></path>
                    <path d="M9.6,25.5 C10.4,25.2 11.3,25 12.1,24.7 C13.2,24.3 12.8,22.5 11.6,22.9 C10.8,23.2 9.9,23.4 9.1,23.7 C8,24.1 8.5,25.9 9.6,25.5 L9.6,25.5 Z" id="Path" fill="#5EB2FC"></path>
                    <path d="M12.2,33.2 C13.2,32.9 14.2,32.6 15.2,32.2 C16.3,31.8 15.9,30 14.7,30.4 C13.7,30.7 12.7,31 11.7,31.4 C10.5,31.8 11,33.6 12.2,33.2 L12.2,33.2 Z" id="Path" fill="#5EB2FC"></path>
                    <path d="M15.2,42.5 C16.3,42.1 17.4,41.8 18.5,41.4 C19.6,41 19.2,39.2 18,39.6 C16.9,40 15.8,40.3 14.7,40.7 C13.5,41.1 14,42.9 15.2,42.5 L15.2,42.5 Z" id="Path" fill="#5EB2FC"></path>
                    <path d="M21.5,45.8 C21.8,46.8 22.2,47.9 22.5,48.9 C22.9,50 24.7,49.6 24.3,48.4 C24,47.4 23.6,46.3 23.3,45.3 C23,44.2 21.2,44.7 21.5,45.8 L21.5,45.8 Z" id="Path" fill="#5EB2FC"></path>
                    <path d="M30.5,43.6 C30.8,44.4 31,45.3 31.3,46.1 C31.7,47.2 33.5,46.8 33.1,45.6 C32.8,44.8 32.6,43.9 32.3,43.1 C31.9,42 30.1,42.4 30.5,43.6 L30.5,43.6 Z" id="Path" fill="#5EB2FC"></path>
                    <path d="M40,40.1 C40.3,41.2 40.7,42.2 41,43.3 C41.4,44.4 43.2,44 42.8,42.8 C42.5,41.7 42.1,40.7 41.8,39.6 C41.4,38.5 39.6,39 40,40.1 L40,40.1 Z" id="Path" fill="#5EB2FC"></path>
                    <path d="M50,37.6 C50.3,38.4 50.5,39.3 50.8,40.1 C51.2,41.2 53,40.8 52.6,39.6 C52.3,38.8 52.1,37.9 51.8,37.1 C51.5,36 49.7,36.5 50,37.6 L50,37.6 Z" id="Path" fill="#5EB2FC"></path>
                </g>
                <g id="Group" transform="translate(127.000000, 21.000000)">
                    <g transform="translate(16.000000, 12.000000)" id="Path">
                        <path d="M49.3,1.8 C49,1 48.2,0.4 47.1,0.6 L2.2,10.7 C1,11 0.6,12.1 0.8,13 C0.8,13.2 0.8,13.3 0.8,13.5 L9.8,53.4 C10,54.4 11.3,55.9 13.4,55.4 L56.4,45.7 C57.9,45.4 59,43.3 58.8,42.3 L49.9,2.6 C49.8,2.4 49.5,2 49.3,1.8 Z" fill="#2C8CF4"></path>
                        <path d="M43.5,6.3 L7.8,14.3 C6.8,14.5 6.5,15.4 6.7,16.1 C6.7,16.2 6.7,16.4 6.7,16.5 C8.2,23.1 9.7,29.7 11.1,36.3 C11.6,38.5 12.1,40.8 12.6,43 C12.9,44.2 13,47.1 13.9,47.9 C14.2,48.2 14.6,48.4 15,48.5 C17.1,49.4 20.4,47.9 22.6,47.4 C25.5,46.7 28.4,46 31.3,45.4 C37.7,43.9 44.2,42.7 50.6,41.1 C52,40.8 52.7,39.3 52.5,38.5 L45.7,8 C45.5,7 44.4,6.1 43.5,6.3 Z" fill="#92CDFA"></path>
                        <path d="M12.9,35.2 C13.9,33.3 15,31.4 16.1,29.6 C16.6,28.7 17.2,27.2 18,26.6 C19.9,25.1 21,25.8 22.5,27.1 C25.8,30 29.4,32.6 33.1,34.8 C34.1,35.4 35.1,33.8 34,33.2 C30.6,31.2 27.3,28.9 24.3,26.3 C23.2,25.3 21.5,23 19.7,22.9 C17.9,22.8 17.2,24.3 16.3,25.6 C14.5,28.4 12.8,31.3 11.2,34.3 C10.7,35.3 12.3,36.3 12.9,35.2 L12.9,35.2 Z" fill="#5EB2FC"></path>
                        <path d="M31.1,31.3 C32,29.5 32.9,27.8 33.9,26.1 C34.7,24.8 35.8,22 37,21.1 C40,18.9 45.8,25.7 48,27.5 C48.9,28.3 50.2,27 49.3,26.2 C46.6,23.9 44,21.4 41.1,19.3 C40.1,18.6 39.2,17.8 37.9,18 C36.3,18.3 35.4,20 34.6,21.2 C32.7,24.1 31,27.2 29.4,30.4 C28.9,31.4 30.5,32.3 31.1,31.3 L31.1,31.3 Z" fill="#5EB2FC"></path>
                        <path d="M24.8,20.4 C27.2,22 30.9,22.2 32.5,19.4 C33.8,17.3 33.2,14.4 31,13.1 C29.1,12 26.6,12.3 24.9,13.7 C23.1,15.3 22.6,18.5 24.5,20.2 C25.4,21 26.7,19.7 25.8,18.9 C24.6,17.9 25.1,15.9 26.2,15 C27.2,14.3 28.5,14.1 29.6,14.6 C31,15.2 31.5,16.9 30.8,18.3 C29.8,20.4 27.1,19.9 25.5,18.8 C24.7,18.1 23.8,19.7 24.8,20.4 L24.8,20.4 Z" fill="#5EB2FC"></path>
                    </g>
                    <g id="Path">
                        <path d="M52.8,4.6 C52.7,3.7 52.1,3 51,2.9 L5.1,0.5 C3.8,0.4 3.1,1.4 3.1,2.4 C3.1,2.6 3,2.7 3,2.9 L0.8,43.8 C0.7,44.8 1.6,46.6 3.7,46.7 L47.7,49 C49.2,49.1 50.8,47.4 50.9,46.4 L53.1,5.8 C53.1,5.3 53,4.9 52.8,4.6 Z" fill="#5EB2FC"></path>
                        <path d="M46.1,7.4 L9.6,5.5 C8.6,5.4 8,6.2 8,6.9 C8,7 7.9,7.2 7.9,7.3 C7.5,14.1 7.2,20.8 6.8,27.6 C6.7,29.9 6.6,32.2 6.4,34.5 C6.3,35.7 5.7,38.5 6.4,39.6 C6.6,40 6.9,40.2 7.3,40.5 C9.1,42 12.7,41.4 14.9,41.5 C17.9,41.6 20.9,41.8 23.8,41.9 C30.4,42.2 36.9,42.8 43.5,43 C44.9,43 46,41.8 46,41 L47.7,9.7 C47.8,8.6 47,7.4 46.1,7.4 Z" fill="#92CDFA"></path>
                        <path d="M8.8,26.9 C10.5,25.2 12.2,23.5 13.9,21.9 C15.1,20.8 15.7,19.9 17.5,19.9 C19.6,19.9 19.3,20.4 20.4,22.2 C22.7,25.8 25.4,29 28.3,32.1 C29.1,33 30.4,31.7 29.6,30.8 C27.1,28.2 24.8,25.4 22.8,22.4 C21.8,20.9 20.7,17.8 18.8,17 C17.3,16.4 16.4,17.2 15.2,18.2 C12.4,20.4 9.9,23.1 7.4,25.7 C6.6,26.5 7.9,27.8 8.8,26.9 L8.8,26.9 Z" fill="#5EB2FC"></path>
                        <path d="M27.3,28 C28.6,26.5 30,25.1 31.4,23.7 C32.5,22.6 34.3,20.2 35.8,19.7 C39.3,18.4 43.1,26.6 44.6,28.9 C45.3,29.9 46.9,29 46.2,28 C44.2,25.1 42.4,21.9 40.2,19.2 C39.5,18.3 38.8,17.3 37.5,17.1 C35.9,16.9 34.5,18.4 33.5,19.3 C30.9,21.6 28.4,24.1 26,26.7 C25.2,27.6 26.5,28.9 27.3,28 L27.3,28 Z" fill="#5EB2FC"></path>
                        <path d="M24.2,15.9 C26.1,18.1 29.5,19.3 31.8,17.1 C33.7,15.4 33.9,12.3 32,10.5 C30.5,9 28,8.7 26.1,9.6 C23.9,10.6 22.6,13.6 24,15.8 C24.7,16.8 26.3,15.9 25.6,14.9 C24.7,13.6 25.7,11.8 27.1,11.3 C28.1,10.9 29.5,11 30.4,11.7 C31.6,12.6 31.8,14.4 30.8,15.6 C29.2,17.5 26.8,16.3 25.5,14.8 C24.8,13.6 23.5,14.9 24.2,15.9 L24.2,15.9 Z" fill="#5EB2FC"></path>
                    </g>
                </g>
                <g id="Group" transform="translate(266.000000, 66.000000)">
                    <path d="M22.4,18.2 C24,15.9 25.2,14.4 25.3,14.2 C26.1,13.1 26.4,12.3 26.3,12 C26.2,11.7 30.1,2.9 30.1,2.5 C30,2.1 27.8,0.5 27.8,0.5 C26.9,0.2 19.9,6.5 19.6,6.7 C19.2,6.8 18.9,6.7 17.8,8.2 C17.5,8.6 16.2,10.4 14.4,12.8 C16.7,14.9 19.4,16.9 22.4,18.2 Z" id="Path" fill="#2C8CF4"></path>
                    <path d="M12.6,31.6 C11.2,31 10,30.2 8.7,29.3 C7.2,28.3 5.9,27.1 4.6,25.8 C2.3,29 0.6,31.4 0.5,31.6 C0.3,32.3 3.5,34.7 4.1,35.1 C5.2,35.9 7.5,37.2 8.2,37 C8.5,37 10.3,34.7 12.6,31.6 Z" id="Path" fill="#2C8CF4"></path>
                    <path d="M8.8,29.2 C10,30.1 11.3,30.9 12.7,31.5 C15.8,27.4 19.8,21.9 22.4,18.2 C19.4,16.9 16.7,14.9 14.3,12.7 C11.5,16.5 7.6,21.8 4.7,25.8 C5.9,27 7.3,28.2 8.8,29.2 Z M11.6,20.9 C13.6,18.3 15.9,16.8 16.9,17.5 C17.9,18.2 17.1,20.9 15.1,23.5 C13.1,26.1 10.8,27.6 9.8,26.9 C8.8,26.2 9.7,23.5 11.6,20.9 Z" id="Shape" fill="#92CDFA"></path>
                    <path d="M15.1,23.5 C17.1,20.9 17.8,18.2 16.9,17.5 C15.9,16.8 13.6,18.3 11.6,20.9 C9.6,23.5 8.9,26.2 9.8,26.9 C10.7,27.6 13.2,26.2 15.1,23.5 Z" id="Path" fill="#5EB2FC"></path>
                </g>
                <g id="Group" transform="translate(149.000000, 97.000000)">
                    <g id="XMLID_1_">
                        <g id="XMLID_16_" transform="translate(15.000000, 52.000000)" fill="#5EB2FC">
                            <path d="M1.9,1.5 C1.8,1.6 1.7,1.6 1.7,1.6 C1.2,1.1 0.5,0.8 2.84217094e-14,1 C0.5,0.6 1.4,1 1.9,1.5 Z" id="Path"></path>
                        </g>
                        <path d="M16.7,53.7 C16.2,53.2 15.5,52.9 15,53.1 C13.7,54 11.4,54.2 9.7,55.2 C9.5,55.3 9.3,55.4 9.2,55.5 C5,58.1 1.9,62.4 0.8,67.3 C0.7,67.8 0.7,68.3 0.9,68.5 C1,68.7 1.2,68.8 1.5,68.8 C1.8,68.8 2.2,68.8 2.5,68.7 C3.4,68.4 4.1,67.8 5,67.4 C7.5,66.1 10.3,64.9 12.2,62.8 C13.4,61.5 14.6,60 15.4,58.4 C16.1,57 16.8,55.7 17.3,54.5 C17.2,54.3 17,54 16.7,53.7 Z" id="Path" fill="#92CDFA"></path>
                        <path d="M66.1,1.5 C65.9,0.9 65,0.6 64.3,1.2 C64.2,1.3 64.2,1.3 64.1,1.4 C53.2,13.9 40.8,25 28.9,36.5 C30.9,36.9 32.7,37.9 33.9,39.5 C34.3,40 34.6,40.6 34.9,41.3 C35,41.5 35,41.8 35.1,42 C38.7,38.7 42,35 45.2,31.3 C52.7,22.6 59.8,13.6 65.6,3.7 C66,3 66.4,2.2 66.1,1.5 Z" id="Path" fill="#92CDFA"></path>
                        <path d="M35,41.2 C34.7,40.6 34.4,40 34,39.4 C32.8,37.8 30.9,36.8 29,36.4 C28.9,36.5 28.8,36.6 28.7,36.6 C27.5,37.7 26.3,38.9 25.2,40 C25,40.2 24.9,40.3 24.7,40.5 C23.8,41.4 23,42.3 22.2,43.2 C19.8,46 17.7,49.1 15.6,52.1 C15.3,52.5 15.3,52.5 14.9,52.9 C15.5,52.5 16.3,52.8 16.8,53.4 C16.7,53.5 16.6,53.5 16.6,53.5 C16.9,53.8 17.1,54.1 17.1,54.5 C17.1,54.5 19.7,53 20.7,52.4 C22.9,51.1 25.1,49.7 27.2,48.2 C29.9,46.3 32.5,44.1 34.9,41.8 C35.1,41.7 35.1,41.5 35,41.2 Z" id="Path" fill="#5EB2FC"></path>
                    </g>
                    <path d="M28.6,38.4 C29.2,38.4 29.8,38.4 30.4,38.4 C30.5,38.4 30.6,38.4 30.7,38.4 C30.5,38.4 30.7,38.4 30.8,38.4 C31,38.4 31.1,38.5 31.3,38.5 C31.4,38.5 31.6,38.6 31.7,38.6 C31.7,38.6 32,38.7 31.8,38.6 C31.7,38.5 31.9,38.6 31.9,38.7 C32,38.8 32.1,38.8 32.2,38.9 C32,38.7 32.2,38.9 32.2,38.9 C32.3,39 32.3,39 32.4,39.1 C32.5,39.2 32.5,39.2 32.6,39.3 C32.7,39.5 32.5,39.2 32.7,39.4 C32.8,39.5 32.9,39.7 33,39.8 C33.1,39.9 33.2,40.1 33.2,40.3 C33.1,40.1 33.2,40.4 33.2,40.4 C33.2,40.5 33.3,40.6 33.3,40.7 C33.4,40.9 33.4,41.1 33.4,41.2 C33.4,41.4 33.4,41.1 33.4,41.3 C33.4,41.4 33.4,41.5 33.4,41.6 C33.4,42.1 33.8,42.6 34.4,42.6 C34.9,42.6 35.4,42.2 35.4,41.6 C35.4,40.7 35.1,39.8 34.7,38.9 C34.3,38.1 33.7,37.4 32.9,36.9 C31.6,36.1 29.9,36.1 28.4,36.1 C27.9,36.1 27.4,36.5 27.4,37.1 C27.6,37.9 28.1,38.4 28.6,38.4 L28.6,38.4 Z" id="Path" fill="#2C8CF4"></path>
                </g>
                <g id="Group" transform="translate(324.000000, 20.000000)">
                    <path d="M41.7,8.6 L28.5,16.7 C28.6,16.6 28.6,16.4 28.6,16.2 C27.7,12.2 26.9,8.1 26.2,4.1 C26.1,3.7 25.6,3.5 25.2,3.6 C25,3.7 24.2,4.1 24,4.4 C21.9,7.7 19.7,10.9 17.2,13.9 C17.1,14 17.1,14.1 17.1,14.1 C14.2,10.1 11.5,5.5 9,1.1 C8.8,0.8 7.5,0.8 7.4,1.5 L1,25.8 C0.8,26.5 1.5,26.9 2,26.7 L35.7,34.9 C36.3,35 36.7,34.5 36.6,34.1 C36.9,34.1 37.3,34 37.4,33.5 L43.2,9.6 C43.4,8.6 42.2,8.3 41.7,8.6 Z" id="Path" fill="#5EB2FC"></path>
                    <path d="M42.1,9.3 C40.1,17.5 38.1,25.7 36.1,33.9 C35.9,34.9 37.4,35.3 37.6,34.3 C39.6,26.1 41.6,17.9 43.6,9.7 C43.9,8.7 42.4,8.3 42.1,9.3 L42.1,9.3 Z" id="Path" fill="#2C8CF4"></path>
                    <path d="M1.1,27.4 C12.8,30.2 24.6,32.8 36.3,35.7 C37.3,35.9 37.7,34.4 36.7,34.2 C25,31.4 13.2,28.8 1.5,25.9 C0.5,25.6 0.1,27.2 1.1,27.4 L1.1,27.4 Z" id="Path" fill="#2C8CF4"></path>
                    <path d="M8,2 C10.7,6.3 13.4,10.5 16.1,14.8 C16.6,15.7 18,14.9 17.5,14 C14.8,9.7 12.1,5.5 9.4,1.2 C8.8,0.3 7.5,1.1 8,2 L8,2 Z" id="Path" fill="#2C8CF4"></path>
                    <path d="M24.7,4.1 C25.7,8.6 26.6,13 27.6,17.5 C27.8,18.5 29.4,18.1 29.1,17.1 C28.1,12.6 27.2,8.2 26.2,3.7 C26,2.7 24.5,3.1 24.7,4.1 L24.7,4.1 Z" id="Path" fill="#2C8CF4"></path>
                </g>
                <g id="Group" transform="translate(329.000000, 81.000000)">
                    <path d="M10,1.1 C9.8,1.2 9.6,1.4 9.5,1.5 L1,9 C0.2,9.7 0.7,10.1 1.1,10.8 C3,13 54.4,71.8 52.5,69.6 C53,70.1 53.4,70.8 54.2,70 L62.8,62.5 C63.8,61.6 63.9,60.5 63.1,59.6 L11.8,0.9 C11.3,0.3 10.6,0.6 10,1.1 Z" id="Path" fill="#92CDFA"></path>
                    <path d="M8.3,9.3 C10.2,7.6 12.1,6 14,4.3 C14.4,4 14.3,3.4 14,3.1 C13.6,2.7 13.1,2.8 12.8,3.1 C10.9,4.8 9,6.4 7.1,8.1 C6.7,8.4 6.8,9 7.1,9.3 C7.5,9.6 8,9.6 8.3,9.3 L8.3,9.3 Z" id="Path" fill="#5EB2FC"></path>
                    <path d="M13.4,11 C14.6,10 15.8,8.9 17,7.9 C17.3,7.6 17.3,7 17,6.7 C16.6,6.4 16.1,6.4 15.8,6.7 C14.6,7.7 13.4,8.8 12.2,9.8 C11.9,10.1 11.9,10.7 12.2,11 C12.5,11.3 13,11.3 13.4,11 L13.4,11 Z" id="Path" fill="#5EB2FC"></path>
                    <path d="M16.5,15.9 C17.9,14.6 19.3,13.3 20.7,12 C21,11.7 21,11.1 20.7,10.8 C20.3,10.5 19.8,10.5 19.5,10.8 C18.1,12.1 16.7,13.4 15.3,14.7 C15,15 15,15.6 15.3,15.9 C15.6,16.2 16.1,16.2 16.5,15.9 L16.5,15.9 Z" id="Path" fill="#5EB2FC"></path>
                    <path d="M18.8,22.4 C20.6,20.8 22.4,19.1 24.2,17.5 C24.5,17.3 24.7,17 25,16.8 C25.3,16.5 25.3,15.9 25,15.6 C24.7,15.3 24.1,15.3 23.8,15.6 C22,17.2 20.2,18.9 18.4,20.5 C18.1,20.7 17.9,21 17.6,21.2 C17.3,21.5 17.3,22.1 17.6,22.4 C17.9,22.7 18.4,22.7 18.8,22.4 L18.8,22.4 Z" id="Path" fill="#5EB2FC"></path>
                    <path d="M23.5,24.9 C25,23.5 26.5,22.1 27.9,20.7 C28.2,20.4 28.2,19.8 27.9,19.5 C27.5,19.2 27,19.2 26.7,19.5 C25.2,20.9 23.7,22.3 22.3,23.7 C22,24 22,24.6 22.3,24.9 C22.7,25.3 23.2,25.3 23.5,24.9 L23.5,24.9 Z" id="Path" fill="#5EB2FC"></path>
                    <path d="M27.3,28.8 C28.6,27.6 29.9,26.3 31.3,25.1 C31.5,24.9 31.7,24.8 31.9,24.6 C32.2,24.3 32.2,23.7 31.9,23.4 C31.5,23.1 31,23.1 30.7,23.4 C29.4,24.6 28.1,25.9 26.7,27.1 C26.5,27.3 26.3,27.4 26.1,27.6 C25.8,27.9 25.8,28.5 26.1,28.8 C26.4,29.1 26.9,29.1 27.3,28.8 L27.3,28.8 Z" id="Path" fill="#5EB2FC"></path>
                    <path d="M30.5,34.9 C32.2,33.4 33.9,31.9 35.6,30.5 C35.8,30.3 36.1,30.1 36.3,29.9 C36.7,29.6 36.6,29 36.3,28.7 C35.9,28.3 35.4,28.4 35.1,28.7 C33.4,30.2 31.7,31.7 30,33.1 C29.8,33.3 29.5,33.5 29.3,33.7 C28.9,34 29,34.6 29.3,34.9 C29.6,35.3 30.1,35.2 30.5,34.9 L30.5,34.9 Z" id="Path" fill="#5EB2FC"></path>
                    <path d="M35.9,37.4 C37,36.5 38.1,35.6 39.2,34.7 C39.4,34.6 39.5,34.4 39.7,34.3 C40.1,34 40,33.4 39.7,33.1 C39.3,32.8 38.8,32.8 38.5,33.1 C37.4,34 36.3,34.9 35.2,35.8 C35,35.9 34.9,36.1 34.7,36.2 C34.3,36.5 34.4,37.1 34.7,37.4 C35.1,37.8 35.6,37.8 35.9,37.4 L35.9,37.4 Z" id="Path" fill="#5EB2FC"></path>
                    <path d="M37.8,42.7 C39.4,41.3 41,39.9 42.6,38.6 C42.8,38.4 43.1,38.2 43.3,38 C43.6,37.7 43.6,37.1 43.3,36.8 C42.9,36.5 42.4,36.5 42.1,36.8 C40.5,38.2 38.9,39.6 37.3,40.9 C37.1,41.1 36.8,41.3 36.6,41.5 C36.3,41.8 36.3,42.4 36.6,42.7 C36.9,43 37.4,43 37.8,42.7 L37.8,42.7 Z" id="Path" fill="#5EB2FC"></path>
                    <path d="M42.8,46.2 C44,45.1 45.2,44.1 46.4,43 C46.6,42.8 46.7,42.7 46.9,42.5 C47.2,42.2 47.2,41.6 46.9,41.3 C46.5,41 46,41 45.7,41.3 C44.5,42.4 43.3,43.4 42.1,44.5 C41.9,44.7 41.8,44.8 41.6,45 C41.3,45.3 41.3,45.9 41.6,46.2 C41.9,46.6 42.4,46.6 42.8,46.2 L42.8,46.2 Z" id="Path" fill="#5EB2FC"></path>
                    <path d="M43.9,50.9 C45.8,49.3 47.7,47.5 49.6,45.9 C50,45.6 49.9,45 49.6,44.7 C49.2,44.3 48.7,44.4 48.4,44.7 C46.5,46.3 44.6,48.1 42.7,49.7 C42.3,50 42.4,50.6 42.7,50.9 C43,51.3 43.5,51.2 43.9,50.9 L43.9,50.9 Z" id="Path" fill="#5EB2FC"></path>
                    <path d="M50.2,52.6 C51.1,51.7 52.1,50.8 53,49.9 C53.1,49.8 53.2,49.7 53.3,49.6 C53.6,49.3 53.6,48.7 53.3,48.4 C52.9,48.1 52.4,48.1 52.1,48.4 C51.3,49.1 50.6,49.9 49.8,50.6 C49.5,50.9 49.3,51.1 49,51.4 C48.7,51.7 48.7,52.3 49,52.6 C49.3,53 49.9,53 50.2,52.6 L50.2,52.6 Z" id="Path" fill="#5EB2FC"></path>
                    <path d="M51.3,58.6 C53.2,56.9 55,55.1 56.9,53.4 C57.2,53.1 57.2,52.5 56.9,52.2 C56.5,51.9 56,51.9 55.7,52.2 C53.8,53.9 52,55.7 50.1,57.4 C49.8,57.7 49.8,58.3 50.1,58.6 C50.4,59 50.9,59 51.3,58.6 L51.3,58.6 Z" id="Path" fill="#5EB2FC"></path>
                    <path d="M56.9,62 C58.1,60.9 59.2,59.8 60.4,58.7 C60.5,58.6 60.7,58.5 60.8,58.3 C61.1,58 61.1,57.4 60.8,57.1 C60.4,56.8 59.9,56.8 59.6,57.1 C58.6,58.1 57.6,59 56.5,60 C56.2,60.3 55.9,60.5 55.7,60.8 C55.4,61.1 55.4,61.7 55.7,62 C56,62.4 56.5,62.4 56.9,62 L56.9,62 Z" id="Path" fill="#5EB2FC"></path>
                </g>
                <g id="Group" transform="translate(414.000000, 140.000000)">
                    <path d="M37,1.4 C36.8,1 36.6,0.9 36.2,0.9 C35.3,0.9 34,1.4 33.4,1.5 C32,1.9 30.6,2.2 29.2,2.6 C25.3,3.6 21.4,4.6 17.5,5.7 C13.7,6.7 10,7.7 6.2,8.7 C4.5,9.1 2.9,9.6 1.2,10 C0.9,10.1 0.6,10.2 0.5,10.4 C0.4,10.5 0.4,10.7 0.4,10.8 C0.3,11.7 0.7,12.6 0.9,13.4 C1.1,14.2 1.3,15 1.5,15.7 C2,17.7 2.6,19.8 3.1,21.8 C4.1,25.6 5.1,29.4 6.1,33.2 C6.3,33.8 6.3,34.6 6.6,35.1 C6.7,35.3 6.9,35.5 7.1,35.5 C7.2,35.5 7.4,35.5 7.6,35.4 C11.7,34.3 15.7,33.3 19.8,32.2 C20.3,32.1 20.8,31.9 21.2,31.8 C22.1,33.1 23.1,34.3 24.1,35.5 C24.8,36.3 25.8,37.9 26.8,37.5 C27.7,37.2 27.9,35.4 28.2,34.5 C28.7,33 29.1,31.4 29.5,29.8 C29.5,29.7 29.5,29.7 29.5,29.6 C30.8,29.3 32.1,28.9 33.4,28.6 C36.2,27.9 39.1,27.1 41.9,26.4 C42,26.4 42.2,26.3 42.3,26.3 C42.5,26.3 42.6,26.2 42.7,26 C43.1,26 43.6,25.7 43.5,25.1 C42.9,22.6 42.2,20.2 41.6,17.7 C40.5,13.5 39.4,9.4 38.3,5.2 C38.1,4.5 38,3.9 37.8,3.2 C37.3,2.7 37.3,2 37,1.4 Z" id="Path" fill="#92CDFA"></path>
                    <path d="M29.8,30.3 C34.3,29.1 38.8,28 43.3,26.9 C44.3,26.6 43.9,25.1 42.9,25.4 C38.4,26.6 33.9,27.7 29.4,28.8 C28.4,29 28.8,30.6 29.8,30.3 L29.8,30.3 Z" id="Path" fill="#5EB2FC"></path>
                    <path d="M7.3,36.3 C12,35.5 16.5,34.1 21,32.6 C22,32.3 21.6,30.7 20.6,31.1 C16.1,32.6 11.6,34 6.9,34.8 C5.8,34.9 6.3,36.5 7.3,36.3 L7.3,36.3 Z" id="Path" fill="#5EB2FC"></path>
                    <path d="M28.8,29.7 C27.9,32.1 27.2,34.5 26.1,36.8 C25.7,37.7 27,38.5 27.5,37.6 C28.6,35.2 29.4,32.6 30.4,30.1 C30.7,29.1 29.2,28.7 28.8,29.7 L28.8,29.7 Z" id="Path" fill="#5EB2FC"></path>
                    <path d="M36,1.8 C39.4,9.3 40.3,18.3 42.4,26.3 C42.7,27.3 44.2,26.9 43.9,25.9 C41.8,17.8 40.8,8.7 37.3,1 C36.9,0.1 35.5,0.9 36,1.8 L36,1.8 Z" id="Path" fill="#5EB2FC"></path>
                    <g transform="translate(11.000000, 8.000000)" fill="#5EB2FC" id="Path">
                        <path d="M0.1,4.9 C0.5,6.5 0.9,8 1.2,9.6 C1.3,10.1 1.9,10.4 2.3,10.2 C3.4,9.9 4.4,9.7 5.5,9.4 C6.2,9.2 7.3,9.1 7.8,8.5 C8.3,7.9 8,7.2 7.8,6.5 C7.4,5.4 7.1,4.3 6.7,3.1 C6.5,2.6 6.1,2.3 5.6,2.5 C4.2,2.9 2.7,3.3 1.3,3.6 C0.2,3.9 0.7,5.6 1.8,5.3 C3.2,4.9 4.7,4.5 6.1,4.2 C5.7,4 5.4,3.8 5,3.6 C5.2,4.3 5.5,5.1 5.7,5.8 C5.8,6.3 6.4,7.2 6.3,7.6 C6.4,7.4 6.6,7.2 6.7,7.1 C6.1,7.5 5.1,7.6 4.4,7.8 C3.6,8 2.7,8.2 1.9,8.4 C2.3,8.6 2.6,8.8 3,9 C2.6,7.4 2.2,5.9 1.9,4.3 C1.6,3.3 -0.2,3.8 0.1,4.9 L0.1,4.9 Z"></path>
                        <path d="M2.4,13.8 C2.8,15.4 3.2,16.9 3.5,18.5 C3.6,19 4.2,19.3 4.6,19.1 C5.6,18.8 6.7,18.6 7.7,18.3 C8.4,18.1 9.5,18 10,17.4 C10.5,16.8 10.2,16.1 10,15.4 C9.6,14.3 9.3,13.2 8.9,12 C8.7,11.5 8.3,11.2 7.8,11.4 C6.4,11.8 5,12.1 3.6,12.5 C2.5,12.8 3,14.5 4.1,14.2 C5.5,13.8 6.9,13.5 8.3,13.1 C7.9,12.9 7.6,12.7 7.2,12.5 C7.4,13.2 7.7,14 7.9,14.7 C8,15.2 8.6,16.1 8.5,16.5 C8.6,16.3 8.8,16.1 8.9,16 C8.4,16.4 7.3,16.5 6.7,16.7 C5.9,16.9 5.1,17.1 4.3,17.3 C4.7,17.5 5,17.7 5.4,17.9 C5,16.3 4.6,14.8 4.3,13.2 C3.9,12.2 2.2,12.7 2.4,13.8 L2.4,13.8 Z"></path>
                        <path d="M12.1,11.2 C12.5,12.8 12.9,14.3 13.2,15.9 C13.3,16.4 13.9,16.7 14.3,16.5 C15.3,16.2 16.4,16 17.4,15.7 C18.1,15.5 19.2,15.4 19.7,14.8 C20.2,14.2 19.9,13.5 19.7,12.8 C19.3,11.7 19,10.6 18.6,9.4 C18.4,8.9 18,8.6 17.5,8.8 C16.1,9.2 14.7,9.5 13.3,9.9 C12.2,10.2 12.7,11.9 13.8,11.6 C15.2,11.2 16.6,10.9 18,10.5 C17.6,10.3 17.3,10.1 16.9,9.9 C17.1,10.6 17.4,11.4 17.6,12.1 C17.7,12.6 18.3,13.5 18.2,13.9 C18.3,13.7 18.5,13.5 18.6,13.4 C18.1,13.8 17,13.9 16.4,14.1 C15.6,14.3 14.8,14.5 14,14.7 C14.4,14.9 14.7,15.1 15.1,15.3 C14.7,13.7 14.3,12.2 14,10.6 C13.6,9.6 11.9,10.1 12.1,11.2 L12.1,11.2 Z"></path>
                        <path d="M11.7,1.4 C12.2,3.3 12.7,5.2 13.1,7 C13.4,8.1 15.1,7.7 14.8,6.5 C14.3,4.6 13.8,2.7 13.4,0.9 C13.2,-0.2 11.4,0.3 11.7,1.4 L11.7,1.4 Z"></path>
                        <path d="M15.9,2.4 C14,2.9 12.1,3.4 10.3,3.8 C9.2,4.1 9.6,5.8 10.8,5.5 C12.7,5 14.6,4.5 16.4,4.1 C17.5,3.9 17,2.1 15.9,2.4 L15.9,2.4 Z"></path>
                    </g>
                </g>
                <g id="Group" transform="translate(404.000000, 81.000000)" fill="#5EB2FC">
                    <path d="M42.4,16.2 C38.7,22.9 30.5,25.6 23.2,24.6 C12.1,23 10.4,13.7 11.7,4 C11.9,2.8 10,2.7 9.8,3.9 C8.4,14 10.3,23.8 21.7,26.2 C30,27.9 39.8,24.9 44,17.2 C44.6,16.2 43,15.1 42.4,16.2 L42.4,16.2 Z" id="Path"></path>
                    <path d="M35.5,30.7 C25.2,26.6 15,22.5 4.7,18.3 C3.6,17.9 3,19.6 4.1,20.1 C14.4,24.2 24.6,28.3 34.9,32.5 C36,32.9 36.6,31.2 35.5,30.7 L35.5,30.7 Z" id="Path"></path>
                    <path d="M16.8,25.4 C17.2,29.1 22.4,28.4 22.2,24.8 C22,21.1 16.6,21.4 16.8,25.2 C16.8,25.2 16.8,25.3 16.8,25.4 Z" id="Path"></path>
                    <path d="M33.8,32.2 C34.2,35.9 39.4,35.2 39.2,31.6 C39,27.9 33.6,28.2 33.8,32 C33.8,32 33.8,32.1 33.8,32.2 Z" id="Path"></path>
                    <path d="M0.7,18.9 C1.1,22.6 6.3,21.9 6.1,18.3 C5.9,14.6 0.5,14.9 0.7,18.7 C0.7,18.8 0.7,18.8 0.7,18.9 Z" id="Path"></path>
                    <path d="M8.2,4.1 C8.6,7.8 13.8,7.1 13.6,3.5 C13.4,-0.2 8,0.1 8.2,3.9 C8.2,4 8.2,4 8.2,4.1 Z" id="Path"></path>
                    <path d="M40.7,16.7 C41.1,20.4 46.3,19.7 46.1,16.1 C45.9,12.4 40.5,12.7 40.7,16.5 C40.7,16.6 40.7,16.7 40.7,16.7 Z" id="Path"></path>
                </g>
                <g id="Group" transform="translate(618.000000, 73.000000)">
                    <path d="M31.8,21.7 C31.7,21.4 31.3,21.2 31,21.4 L6.4,35.6 C6.2,35.7 6.1,35.9 6.1,36 C5.9,36.2 5.9,36.4 6,36.7 L18.8,56.5 C18.9,56.7 19.4,57.2 20,56.8 L42,44.1 C42.5,43.9 43.1,43 42.9,42.6 L32.3,22 C32.1,21.8 32,21.7 31.8,21.7 Z" id="Path" fill="#5EB2FC"></path>
                    <path d="M17.6,54 C19.2,54.8 21.1,54 20.8,52 C20.7,51.6 21.1,51.2 21.5,51.2 C22.6,51.3 23.9,51 25,50.7 C25.6,50.5 26.3,50.4 26.8,50 C26.9,49.9 27,49.8 27.1,49.8 C27.1,49.8 27.1,49.8 27.1,49.7 C27,49.6 26.9,49.5 26.8,49.4 C26.2,48.9 26.9,47.8 27.6,48.2 C29.8,49.4 34,47.3 33,44.5 C32.8,43.9 33.5,43.3 34,43.6 C34.5,43.9 35.4,44.4 36,44.1 C36.6,43.8 36.8,42.8 37,42.2 C37.1,41.8 37.4,41.6 37.8,41.6 C37.3,38.2 36.1,34.7 34.3,31.8 C32.4,28.8 30,26.1 28,23.2 L6.5,35.6 C6.3,35.7 6.2,35.9 6.2,36 C6,36.2 6,36.4 6.1,36.7 L17.2,53.9 C17.2,53.9 17.4,53.9 17.6,54 Z" id="Path" fill="#5EB2FC"></path>
                    <path d="M31.8,21.7 C31.7,21.4 31.3,21.2 31,21.4 L29.1,22.5 C31.3,25.5 33.8,28.3 35.7,31.5 C37.7,34.9 39,39.1 39.3,43 C39.3,43.5 38.7,44 38.3,43.7 C38.2,43.6 38.1,43.6 38,43.5 C37.7,44.3 37.3,45 36.6,45.4 C35.9,45.8 35.2,45.7 34.5,45.5 C34.4,48.2 31.1,50.4 28.4,50 C28.2,50.7 27.5,51.3 26.6,51.7 C25.4,52.2 23.8,52.6 22.4,52.7 C22.3,54.7 20.3,56 18.4,55.7 L19,56.6 C19.1,56.8 19.6,57.3 20.2,56.9 L42.2,44.2 C42.7,44 43.3,43.1 43.1,42.7 L32.3,22 C32.1,21.8 32,21.7 31.8,21.7 Z" id="Path" fill="#2C8CF4" opacity="0.39"></path>
                    <path d="M27.7,17.9 C26.2,18.2 25,19.2 23.7,19.9 C22.8,20.4 21.8,21 20.9,21.5 C20.1,20.1 19.3,18.8 18.5,17.4 C16.9,14.6 15.3,11.8 13.7,9.1 C12.8,7.6 10,2.3 9.2,1.5 C7.7,-0.1 4.9,-0.3 3.1,1 C1.8,2 0.9,3.6 1,5.2 C1,5.9 1.3,6.7 1.7,7.3 C2.3,8.2 2.8,9.2 3.3,10.1 C4.7,12.6 6.2,15 7.6,17.5 C8.9,19.7 10.2,22 11.5,24.2 C11.6,24.3 12.7,26.3 12.7,26.3 C10.6,27.5 8.5,28.7 6.4,30 C4.4,31.2 3,33.5 3.8,35.9 C4,36.5 4.3,37 4.8,37.3 C5.5,37.8 6.1,37.5 6.8,37.1 C11.7,34.3 16.6,31.6 21.5,28.7 C23.6,27.5 25.7,26.3 27.7,25 C28.8,24.4 29.8,23.8 30.9,23.1 C31.4,22.8 31.9,22.5 32.4,22.2 C33.4,21.6 33.3,20.5 32.7,19.6 C31.8,18.3 30.2,17.6 28.6,17.6 C28.3,17.8 28,17.8 27.7,17.9 Z" id="Path" fill="#2C8CF4"></path>
                    <path d="M13.9,41.9 C16.7,46.1 19.1,50.5 21.9,54.7 C22.5,55.5 23.9,54.7 23.3,53.9 C20.5,49.7 18.1,45.3 15.3,41.1 C14.7,40.2 13.3,41 13.9,41.9 L13.9,41.9 Z" id="Path" fill="#2C8CF4"></path>
                    <path d="M21.1,41.1 C23.3,44.5 25.2,48 27.4,51.4 C28,52.3 29.3,51.5 28.8,50.6 C26.6,47.2 24.7,43.7 22.5,40.3 C21.9,39.4 20.5,40.2 21.1,41.1 L21.1,41.1 Z" id="Path" fill="#2C8CF4"></path>
                    <path d="M31.4,35.1 C33.6,38.5 35.6,41.9 37.8,45.3 C38.4,46.2 39.7,45.4 39.2,44.5 C37,41.1 35,37.7 32.8,34.3 C32.2,33.5 30.8,34.3 31.4,35.1 L31.4,35.1 Z" id="Path" fill="#2C8CF4"></path>
                    <path d="M24.9,33.2 C28,38 30.8,43 33.9,47.8 C34.5,48.7 35.8,47.9 35.3,47 C32.2,42.2 29.4,37.2 26.3,32.4 C25.7,31.5 24.3,32.3 24.9,33.2 L24.9,33.2 Z" id="Path" fill="#2C8CF4"></path>
                    <path d="M6.6,37.8 C15.3,32.4 24.4,27.6 33.2,22.2 C34.1,21.7 33.3,20.3 32.4,20.8 C23.7,26.2 14.6,31 5.8,36.4 C4.9,36.9 5.7,38.3 6.6,37.8 L6.6,37.8 Z" id="Path" fill="#1273EB"></path>
                    <path d="M5.6,1.6 C9.5,1 12.4,8.2 14,11.1 C16,14.5 17.8,18.1 19.5,21.6 C19.9,22.5 21.3,21.7 20.9,20.8 C18.3,15.3 15.3,10 12.2,4.9 C10.2,1.7 9.3,-0.5 5.2,0.1 C4.2,0.2 4.6,1.7 5.6,1.6 L5.6,1.6 Z" id="Path" fill="#1273EB"></path>
                </g>
                <g id="Group" transform="translate(497.000000, 137.000000)">
                    <path d="M49.8,62.3 C47.7,58.1 17.6,5.9 15.1,2 C14.8,1.5 14.5,1 14.1,0.5 C13.7,0 12.7,-0.3 12.4,0.8 L0.2,51.9 C0.1,52.5 1.1,52.7 1.1,52.7 L48.5,64 C48.6,64 48.6,64 48.6,64 C49.2,64 50.6,63.8 49.8,62.3 Z M30.5,49.4 C30.5,49.4 30.5,49.4 30.5,49.4 L12.7,45.1 C12.7,45.1 12.3,45 12.4,44.8 L17,25.6 C17.1,25.2 17.5,25.3 17.6,25.5 C17.7,25.7 17.8,25.9 18,26.1 C18.9,27.6 30.3,47.2 31,48.7 C31.3,49.3 30.7,49.4 30.5,49.4 Z" id="Shape" fill="#92CDFA"></path>
                    <path d="M11.7,9.6 C12.7,9.8 13.6,10.1 14.6,10.3 C15.8,10.6 16.3,8.8 15.1,8.5 C14.1,8.3 13.2,8 12.2,7.8 C11,7.6 10.5,9.4 11.7,9.6 L11.7,9.6 Z" id="Path" fill="#5EB2FC"></path>
                    <path d="M9.8,17.1 C10.8,17.3 11.8,17.6 12.8,17.8 C14,18.1 14.5,16.3 13.3,16 C12.3,15.8 11.3,15.5 10.3,15.3 C9.1,15 8.6,16.8 9.8,17.1 L9.8,17.1 Z" id="Path" fill="#5EB2FC"></path>
                    <path d="M8,25.6 C8.8,25.8 9.7,26 10.5,26.2 C11.7,26.5 12.2,24.7 11,24.4 C10.2,24.2 9.3,24 8.5,23.8 C7.4,23.5 6.9,25.3 8,25.6 L8,25.6 Z" id="Path" fill="#5EB2FC"></path>
                    <path d="M6.2,33.5 C7.2,33.7 8.2,34 9.3,34.2 C10.5,34.5 11,32.7 9.8,32.4 C8.8,32.2 7.8,31.9 6.7,31.7 C5.5,31.4 5,33.2 6.2,33.5 L6.2,33.5 Z" id="Path" fill="#5EB2FC"></path>
                    <path d="M3.9,43 C5,43.3 6.2,43.5 7.3,43.8 C8.5,44.1 9,42.3 7.8,42 C6.7,41.7 5.5,41.5 4.4,41.2 C3.3,40.9 2.8,42.7 3.9,43 L3.9,43 Z" id="Path" fill="#5EB2FC"></path>
                    <path d="M7.6,49.2 C7.3,50.3 7.1,51.3 6.8,52.4 C6.5,53.6 8.3,54.1 8.6,52.9 C8.9,51.8 9.1,50.8 9.4,49.7 C9.7,48.5 7.9,48 7.6,49.2 L7.6,49.2 Z" id="Path" fill="#5EB2FC"></path>
                    <path d="M16.4,51.9 C16.2,52.7 16,53.6 15.8,54.4 C15.5,55.6 17.3,56.1 17.6,54.9 C17.8,54.1 18,53.2 18.2,52.4 C18.5,51.3 16.7,50.8 16.4,51.9 L16.4,51.9 Z" id="Path" fill="#5EB2FC"></path>
                    <path d="M26.4,53.9 C26.1,55 25.9,56.1 25.6,57.2 C25.3,58.4 27.1,58.9 27.4,57.7 C27.7,56.6 27.9,55.5 28.2,54.4 C28.4,53.2 26.6,52.7 26.4,53.9 L26.4,53.9 Z" id="Path" fill="#5EB2FC"></path>
                    <path d="M36.2,57 C36,57.8 35.8,58.7 35.6,59.5 C35.3,60.7 37.1,61.2 37.4,60 C37.6,59.2 37.8,58.3 38,57.5 C38.3,56.3 36.5,55.8 36.2,57 L36.2,57 Z" id="Path" fill="#5EB2FC"></path>
                </g>
                <g id="Group" transform="translate(495.000000, 71.000000)">
                    <path d="M21.1,18.4 C22.5,16 23.5,14.3 23.6,14.1 C24.3,12.9 24.5,12.1 24.3,11.8 C24.1,11.5 27.2,2.4 27.1,2 C27,1.6 24.6,0.2 24.6,0.2 C23.7,1.42941214e-14 17.4,7 17,7.2 C16.6,7.4 16.3,7.3 15.4,8.8 C15.2,9.2 14,11.1 12.5,13.7 C15.1,15.8 18,17.4 21.1,18.4 Z" id="Path" fill="#5EB2FC"></path>
                    <path d="M12.8,32.7 C11.4,32.3 10,31.5 8.7,30.8 C7.1,29.9 5.7,28.9 4.3,27.8 C2.3,31.2 0.9,33.7 0.9,34 C0.8,34.7 4.2,36.8 4.9,37.2 C6,37.9 8.5,38.9 9.1,38.7 C9.3,38.6 10.8,36.1 12.8,32.7 Z" id="Path" fill="#5EB2FC"></path>
                    <path d="M8.7,30.8 C10,31.5 11.3,32.2 12.8,32.7 C15.4,28.3 18.8,22.4 21.1,18.4 C18,17.4 15.1,15.7 12.5,13.8 C10.1,17.8 6.8,23.5 4.3,27.8 C5.7,28.9 7.2,29.9 8.7,30.8 Z M10.7,22.2 C12.4,19.4 14.6,17.6 15.6,18.3 C16.6,18.9 16.1,21.7 14.4,24.5 C12.7,27.3 10.5,29.1 9.5,28.4 C8.5,27.7 9.1,25 10.7,22.2 Z" id="Shape" fill="#92CDFA"></path>
                    <path d="M14.5,24.5 C16.2,21.7 16.7,18.9 15.7,18.3 C14.7,17.7 12.5,19.4 10.8,22.2 C9.1,25 8.6,27.8 9.6,28.4 C10.6,29 12.8,27.3 14.5,24.5 Z" id="Path" fill="#5EB2FC"></path>
                </g>
                <g id="Group" transform="translate(545.000000, 105.000000)">
                    <path d="M42.4,10.6 L28.7,17.7 C28.8,17.6 28.8,17.4 28.8,17.2 C28.2,13.1 27.7,9 27.3,4.9 C27.3,4.5 26.7,4.2 26.4,4.3 C26.1,4.4 25.4,4.8 25.2,5 C22.9,8.2 20.4,11.2 17.7,14 C17.6,14.1 17.6,14.2 17.5,14.2 C14.9,9.9 12.5,5.2 10.4,0.7 C10.2,0.4 9,0.3 8.8,0.9 L0.6,24.6 C0.4,25.3 1,25.7 1.6,25.6 L34.6,36.3 C35.2,36.5 35.6,36 35.6,35.5 C35.9,35.6 36.3,35.4 36.4,35 L44,11.6 C44.1,10.7 42.9,10.3 42.4,10.6 Z" id="Path" fill="#5EB2FC"></path>
                    <path d="M42.7,11.3 C40.1,19.3 37.5,27.4 34.9,35.4 C34.6,36.4 36.1,36.8 36.4,35.8 C39,27.8 41.6,19.7 44.2,11.7 C44.6,10.8 43,10.3 42.7,11.3 L42.7,11.3 Z" id="Path" fill="#2C8CF4"></path>
                    <path d="M0.6,26.3 C12.1,30 23.6,33.5 35.1,37.2 C36.1,37.5 36.5,36 35.5,35.7 C24,32 12.5,28.5 1,24.8 C-3.46944695e-18,24.4 -0.4,26 0.6,26.3 L0.6,26.3 Z" id="Path" fill="#2C8CF4"></path>
                    <path d="M9.3,1.4 C11.7,5.8 14,10.3 16.4,14.7 C16.9,15.6 18.3,14.8 17.8,13.9 C15.4,9.5 13.1,5 10.7,0.6 C10.2,-0.3 8.8,0.5 9.3,1.4 L9.3,1.4 Z" id="Path" fill="#2C8CF4"></path>
                    <path d="M25.7,4.9 C26.3,9.4 26.9,13.9 27.6,18.4 C27.7,19.4 29.3,19 29.1,18 C28.5,13.5 27.9,9 27.2,4.5 C27.1,3.4 25.6,3.9 25.7,4.9 L25.7,4.9 Z" id="Path" fill="#2C8CF4"></path>
                </g>
                <g id="Group" transform="translate(450.000000, 34.000000)">
                    <path d="M52.1,7.7 C52.6,7.1 53.1,6.5 53.4,5.7 C54.1,4.1 53.5,2.2 52.1,1.1 C50.4,-0.3 48.6,5.55111512e-17 46.8,1 C45,2.1 43.1,3.2 41.3,4.2 C40.6,4.6 39.9,5.1 39.1,5.5 C38.8,5.6 38.4,5.8 38.2,6 C37.6,6.4 37.8,7.1 38.3,7.4 C38.3,7.4 38.3,7.5 38.4,7.5 L41.5,12.8 C41.6,13 41.7,13.1 41.8,13.1 C41.9,13.5 42.4,13.9 42.9,13.6 C44.5,12.6 46.1,11.7 47.7,10.7 C48.4,10.3 49.1,9.8 49.8,9.4 C50.7,9 51.5,8.4 52.1,7.7 Z" id="Path" fill="#8080F1"></path>
                    <path d="M9.3,33.2 L39.1,15.6 C39.6,15.3 39.5,14.6 39.1,14.3 C39.1,14.2 39.1,14.2 39,14.1 L38.6,13.4 L36.3,9.6 L35.9,8.9 C35.9,8.8 35.8,8.8 35.8,8.8 C35.7,8.3 35.2,7.9 34.7,8.2 L5,25.9 C4.9,25.9 4.9,25.9 4.8,26 C2.5,27.4 0.8,29.7 0.2,32.3 C0.1,32.8 0,33.3 0.3,33.6 C0.5,33.9 0.9,34.2 1.4,34.3 C4,35 6.8,34.7 9.2,33.3 C9.2,33.3 9.3,33.2 9.3,33.2 Z" id="Path" fill="#C7EBFF"></path>
                    <path d="M43.6,14.1 L37.9,4.4 C37.7,4.1 37,3.9 36.7,4.1 L33.9,5.7 C33.3,6 33.3,6.7 33.5,6.9 L39.3,16.8 C39.3,16.8 39.4,16.9 39.4,17 C39.6,17.4 40.1,17.5 40.5,17.3 L43.2,15.7 C43.9,15.4 44,14.8 43.6,14.1 Z" id="Path" fill="#5F5FF6"></path>
                    <path d="M52.9,3.7 C52.6,5.8 51,7.3 49.3,8.3 C47.3,9.6 45.1,10.4 43.2,11.8 C42.9,12 43,12.5 43.2,12.7 C43.5,13 43.9,12.9 44.1,12.7 C46,11.2 48.4,10.4 50.4,9 C52.2,7.8 53.7,6.1 54.1,3.9 C54.2,3.5 54,3.2 53.6,3.1 C53.4,3.2 52.9,3.4 52.9,3.7 L52.9,3.7 Z" id="Path" fill="#5F5FF6"></path>
                    <path d="M33.4,7.5 C35.4,10.6 37.4,13.8 39.3,16.9 C39.8,17.6 40.9,17 40.5,16.2 C38.5,13.1 36.5,9.9 34.6,6.8 C34.1,6.1 33,6.8 33.4,7.5 L33.4,7.5 Z" id="Path" fill="#4949E7"></path>
                    <path d="M40.7,17.5 C40.9,17.3 41.2,17.1 41.4,16.9 C41.4,16.9 41.5,16.8 41.4,16.9 C41.3,17 41.4,16.9 41.5,16.9 C41.6,16.9 41.6,16.8 41.7,16.8 C41.8,16.7 42,16.6 42.1,16.5 C42.6,16.2 43.1,15.8 43.7,15.6 C44,15.4 44.1,15 43.9,14.7 C43.7,14.4 43.3,14.3 43,14.5 C41.9,15.1 40.8,15.8 39.8,16.7 C39.5,16.9 39.5,17.4 39.8,17.6 C40.1,17.8 40.4,17.7 40.7,17.5 L40.7,17.5 Z" id="Path" fill="#4949E7"></path>
                    <path d="M37.9,14.5 C31.9,18.4 26.1,22.7 20,26.4 C16.9,28.3 13.6,30 10.3,31.4 C7.6,32.6 4.8,33.4 1.8,32.9 C1,32.8 0.6,34.1 1.4,34.2 C4.3,34.6 7.1,34.2 9.8,33.1 C13.2,31.7 16.4,30 19.6,28.2 C26.1,24.4 32.2,19.8 38.6,15.7 C39.3,15.2 38.6,14 37.9,14.5 L37.9,14.5 Z" id="Path" fill="#92CDFA"></path>
                </g>
                <g id="Group" transform="translate(384.000000, 0.000000)" fill="#5EB2FC">
                    <path d="M3.5,12 C10.6,9.2 18.7,12.3 23.6,17.8 C31.1,26.1 26.5,34.4 19.4,41 C18.5,41.8 19.9,43.1 20.8,42.3 C28.3,35.4 33.1,26.6 25.8,17.5 C20.5,10.9 11,7 2.9,10.2 C1.8,10.7 2.3,12.5 3.5,12 L3.5,12 Z" id="Path"></path>
                    <path d="M18.1,5.3 C23.4,15 28.7,24.7 34,34.5 C34.6,35.6 36.2,34.6 35.6,33.5 C30.3,23.7 25,14 19.7,4.3 C19.1,3.2 17.5,4.2 18.1,5.3 L18.1,5.3 Z" id="Path"></path>
                    <path d="M29.1,21.3 C31.2,18.2 26.7,15.4 24.5,18.3 C22.3,21.2 26.7,24.5 28.9,21.5 C29,21.4 29,21.3 29.1,21.3 Z" id="Path"></path>
                    <path d="M20.3,5.2 C22.4,2.1 17.9,-0.7 15.7,2.2 C13.5,5.1 17.9,8.4 20.1,5.4 C20.2,5.3 20.3,5.3 20.3,5.2 Z" id="Path"></path>
                    <path d="M37.4,36.5 C39.5,33.4 35,30.6 32.8,33.5 C30.6,36.4 35,39.7 37.2,36.7 C37.3,36.6 37.3,36.6 37.4,36.5 Z" id="Path"></path>
                    <path d="M22.2,43.2 C24.3,40.1 19.8,37.3 17.6,40.2 C15.4,43.1 19.8,46.4 22,43.4 C22.1,43.3 22.1,43.2 22.2,43.2 Z" id="Path"></path>
                    <path d="M5.2,12.7 C7.3,9.6 2.8,6.8 0.6,9.7 C-1.6,12.6 2.8,15.9 5,12.9 C5.1,12.9 5.1,12.8 5.2,12.7 Z" id="Path"></path>
                </g>
                <g id="Group" transform="translate(541.000000, 32.000000)">
                    <g id="Path">
                        <path d="M36.7,1.3 C36.5,0.9 36.2,0.8 35.8,0.8 C34.9,0.8 33.7,1.5 33.1,1.7 C31.7,2.2 30.4,2.7 29,3.2 C25.2,4.5 21.4,5.9 17.6,7.2 C13.9,8.5 10.3,9.8 6.6,11.1 C5,11.7 3.4,12.3 1.7,12.8 C1.4,12.9 1.1,13 1,13.3 C0.9,13.4 0.9,13.6 0.9,13.7 C0.9,14.6 1.4,15.5 1.6,16.3 C1.9,17.1 2.1,17.8 2.4,18.6 C3.1,20.6 3.8,22.6 4.5,24.5 C5.8,28.2 7.1,31.9 8.4,35.6 C8.6,36.2 8.8,36.9 9.1,37.5 C9.2,37.7 9.4,37.8 9.6,37.9 C9.8,37.9 9.9,37.9 10,37.8 C13.9,36.4 17.9,35 21.8,33.6 C22.3,33.4 22.7,33.3 23.2,33.1 C24.2,34.3 25.3,35.5 26.4,36.6 C27.1,37.3 28.3,38.8 29.2,38.4 C30,38 30.1,36.2 30.3,35.3 C30.6,33.7 30.9,32.1 31.2,30.5 C31.2,30.4 31.2,30.4 31.2,30.3 C32.5,29.9 33.7,29.4 35,29 C37.8,28 40.5,27 43.3,26.1 C43.4,26.1 43.6,26 43.7,26 C43.9,25.9 44,25.8 44.1,25.7 C44.5,25.7 45,25.3 44.8,24.8 C43.9,22.4 43.1,20 42.2,17.6 C40.8,13.5 39.3,9.5 37.9,5.4 C37.7,4.8 37.4,4.1 37.2,3.5 C37.1,2.6 37,1.9 36.7,1.3 Z" fill="#92CDFA"></path>
                        <path d="M31.8,30.8 C36.2,29.3 40.6,27.8 45,26.2 C46,25.9 45.5,24.3 44.6,24.7 C40.2,26.2 35.8,27.7 31.4,29.3 C30.5,29.6 30.9,31.1 31.8,30.8 L31.8,30.8 Z" fill="#5EB2FC"></path>
                        <path d="M9.9,38.6 C14.5,37.5 18.9,35.6 23.2,33.8 C24.1,33.4 23.7,31.9 22.8,32.3 C18.4,34.1 14,35.9 9.5,37.1 C8.5,37.3 8.9,38.9 9.9,38.6 L9.9,38.6 Z" fill="#5EB2FC"></path>
                        <path d="M30.8,30.1 C30.1,32.6 29.5,35.1 28.6,37.6 C28.2,38.6 29.8,39 30.1,38 C31,35.6 31.5,33 32.3,30.5 C32.7,29.6 31.1,29.1 30.8,30.1 L30.8,30.1 Z" fill="#5EB2FC"></path>
                        <path d="M35.6,1.8 C39.6,9 41.3,17.9 44,25.7 C44.3,26.7 45.9,26.2 45.5,25.3 C42.7,17.4 41,8.4 36.9,1.1 C36.5,0.1 35.1,0.9 35.6,1.8 L35.6,1.8 Z" fill="#5EB2FC"></path>
                    </g>
                    <path d="M36,24.2 C33.5,21 30.7,18.8 26.6,18.2 C26.8,18.6 27,19.1 27.1,19.5 C30.5,14.9 25.9,7.2 20,9.3 C17.6,10.2 15.9,12.5 15.7,15.1 C15.4,18.3 17.4,20.2 19.8,21.9 C19.8,21.4 19.8,20.9 19.8,20.3 C16.5,22.7 15.2,27.4 15.3,31.3 C15.3,32.5 17.1,32.5 17.1,31.3 C17.1,28.1 18,23.9 20.7,21.9 C21.3,21.5 21.3,20.8 20.7,20.3 C17.9,18.2 15.5,13.7 19.9,11.3 C25.1,8.5 27.9,15.3 25.6,18.5 C25.3,18.9 25.6,19.8 26.1,19.8 C29.7,20.3 32.3,22.1 34.4,24.9 C35.1,26 36.7,25.1 36,24.2 L36,24.2 Z" id="Path" fill="#5EB2FC"></path>
                </g>
                <g id="Group" transform="translate(211.000000, 149.000000)">
                    <g id="Path">
                        <path d="M39.1,1.3 C39,0.9 38.8,0.7 38.4,0.6 C37.6,0.3 36.2,0.5 35.5,0.5 C34,0.5 32.6,0.5 31.1,0.5 C27.1,0.5 23,0.5 19,0.5 C15.1,0.5 11.2,0.5 7.3,0.5 C5.6,0.5 3.8,0.6 2.1,0.5 C1.8,0.5 1.5,0.5 1.3,0.7 C1.2,0.8 1.1,0.9 1.1,1 C0.8,1.8 0.9,2.8 0.9,3.7 C0.9,4.5 0.9,5.3 0.9,6.1 C0.9,8.2 0.9,10.3 0.9,12.4 C0.9,16.3 0.9,20.2 0.9,24.2 C0.9,24.8 0.8,25.6 0.9,26.2 C0.9,26.4 1.1,26.6 1.3,26.7 C1.4,26.8 1.6,26.8 1.7,26.8 C5.9,26.8 10.1,26.8 14.3,26.8 C14.8,26.8 15.3,26.8 15.8,26.8 C16.4,28.3 16.9,29.7 17.6,31.1 C18,32 18.6,33.8 19.7,33.7 C20.6,33.6 21.3,31.9 21.8,31.1 C22.6,29.7 23.5,28.3 24.3,26.9 C24.3,26.8 24.4,26.8 24.4,26.7 C25.7,26.7 27.1,26.7 28.4,26.7 C31.3,26.7 34.3,26.7 37.2,26.7 C37.3,26.7 37.5,26.7 37.6,26.7 C37.8,26.7 37.9,26.6 38,26.5 C38.4,26.6 39,26.4 39,25.9 C39,23.3 39,20.8 39,18.2 C39,13.9 39,9.6 39,5.3 C39,4.6 39,3.9 39,3.3 C39.1,2.7 39.2,2 39.1,1.3 Z" fill="#92CDFA"></path>
                        <path d="M24.8,27.5 C29.5,27.5 34.1,27.6 38.8,27.6 C39.8,27.6 39.8,26 38.8,26 C34.1,26 29.5,25.9 24.8,25.9 C23.8,25.9 23.8,27.5 24.8,27.5 L24.8,27.5 Z" fill="#5EB2FC"></path>
                        <path d="M1.5,27.5 C6.2,28 11,27.7 15.7,27.4 C16.7,27.3 16.7,25.7 15.7,25.8 C11,26.1 6.2,26.3 1.5,25.9 C0.4,25.8 0.5,27.4 1.5,27.5 L1.5,27.5 Z" fill="#5EB2FC"></path>
                        <path d="M24,26.6 C22.5,28.6 21.2,30.8 19.6,32.8 C18.9,33.6 20.1,34.7 20.7,33.9 C22.4,31.9 23.8,29.6 25.4,27.4 C26,26.6 24.6,25.8 24,26.6 L24,26.6 Z" fill="#5EB2FC"></path>
                        <path d="M38,1.5 C39.4,9.7 38,18.6 38,26.8 C38,27.8 39.6,27.8 39.6,26.8 C39.6,18.4 41,9.4 39.6,1.1 C39.4,0.1 37.8,0.5 38,1.5 L38,1.5 Z" fill="#5EB2FC"></path>
                    </g>
                    <g transform="translate(10.000000, 6.000000)" fill="#5EB2FC" id="Path">
                        <path d="M10.7,15.4 C8,13.6 5.4,11.2 3.8,8.4 C3,7 2.1,4.2 3.3,2.8 C5.4,0.5 8.2,4.6 9,6 C9.6,7 11.2,6.1 10.6,5.1 C9.4,3.2 7.7,0.8 5.3,0.3 C2.9,-0.2 1.4,1.8 1,4 C0.1,9.5 5.7,14.3 9.7,17 C10.7,17.7 11.6,16.1 10.7,15.4 L10.7,15.4 Z"></path>
                        <path d="M11.1,16.8 C15.2,14 20.6,8.8 19,3.3 C17.3,-2.9 11.1,1.9 9,5.1 C8.4,6.1 9.9,7 10.6,6 C11.4,4.8 12.7,3.1 14,2.6 C17.7,1.1 17.8,5.2 17,7.4 C15.9,10.7 12.9,13.4 10.2,15.3 C9.2,15.9 10.1,17.5 11.1,16.8 L11.1,16.8 Z"></path>
                    </g>
                </g>
            </g>
        </g>
    </g>
</svg>